<?xml version="1.0" encoding="UTF-8" standalone="no"?>
<!-- Created with Inkscape (http://www.inkscape.org/) -->

<svg
   xmlns:dc="http://purl.org/dc/elements/1.1/"
   xmlns:cc="http://creativecommons.org/ns#"
   xmlns:rdf="http://www.w3.org/1999/02/22-rdf-syntax-ns#"
   xmlns:svg="http://www.w3.org/2000/svg"
   xmlns="http://www.w3.org/2000/svg"
   xmlns:sodipodi="http://sodipodi.sourceforge.net/DTD/sodipodi-0.dtd"
   xmlns:inkscape="http://www.inkscape.org/namespaces/inkscape"
   width="1223.0938"
   height="681.58923"
   id="svg2"
   version="1.1"
   inkscape:version="0.48.4 r9939"
   sodipodi:docname="New document 1">
  <sodipodi:namedview
     id="base"
     pagecolor="#ffffff"
     bordercolor="#666666"
     borderopacity="1.0"
     inkscape:pageopacity="0.0"
     inkscape:pageshadow="2"
     inkscape:zoom="0.35"
     inkscape:cx="701.82442"
     inkscape:cy="567.85857"
     inkscape:document-units="px"
     inkscape:current-layer="layer1"
     showgrid="false"
     inkscape:window-width="1275"
     inkscape:window-height="894"
     inkscape:window-x="0"
     inkscape:window-y="0"
     inkscape:window-maximized="0"
     fit-margin-top="0"
     fit-margin-left="0"
     fit-margin-right="0"
     fit-margin-bottom="0" />
  <defs
     id="defs4">
    <marker
       style="overflow:visible"
       id="DotL"
       refX="0"
       refY="0"
       orient="auto"
       inkscape:stockid="DotL">
      <path
         inkscape:connector-curvature="0"
         transform="matrix(0.8,0,0,0.8,5.92,0.8)"
         style="fill-rule:evenodd;stroke:#000000;stroke-width:1pt"
         d="m -2.5,-1 c 0,2.76 -2.24,5 -5,5 -2.76,0 -5,-2.24 -5,-5 0,-2.76 2.24,-5 5,-5 2.76,0 5,2.24 5,5 z"
         id="path3826" />
    </marker>
    <marker
       style="overflow:visible"
       id="Arrow1Lend"
       refX="0"
       refY="0"
       orient="auto"
       inkscape:stockid="Arrow1Lend">
      <path
         inkscape:connector-curvature="0"
         transform="matrix(-0.8,0,0,-0.8,-10,0)"
         style="fill-rule:evenodd;stroke:#000000;stroke-width:1pt"
         d="M 0,0 5,-5 -12.5,0 5,5 0,0 z"
         id="path3768" />
    </marker>
  </defs>
  <metadata
     id="metadata7">
    <rdf:RDF>
      <cc:Work
         rdf:about="">
        <dc:format>image/svg+xml</dc:format>
        <dc:type
           rdf:resource="http://purl.org/dc/dcmitype/StillImage" />
        <dc:title></dc:title>
      </cc:Work>
    </rdf:RDF>
  </metadata>
  <g
     transform="translate(228.6875,-418.63155)"
     id="layer1"
     inkscape:groupmode="layer"
     inkscape:label="Layer 1">
    <rect
       transform="matrix(0.99999748,0.0022434,-0.66901001,0.74325339,0,0)"
       y="641.21716"
       x="940.65448"
       height="746.99243"
       width="310.68918"
       id="rect2985"
       style="opacity:0.52755905;fill:none;stroke:#000000;stroke-width:3.47628498;stroke-miterlimit:4;stroke-opacity:1;stroke-dasharray:27.81027657, 3.47628457;stroke-dashoffset:0" />
    <path
       inkscape:connector-curvature="0"
       id="path2987"
       d="m -228.68716,1035.2194 1223.0886,0"
       style="fill:none;stroke:#000000;stroke-width:1px;stroke-linecap:butt;stroke-linejoin:miter;stroke-opacity:1" />
    <path
       inkscape:connector-curvature="0"
       id="path2989"
       d="m 17.142857,1032.3622 308.571423,0"
       style="fill:none;stroke:#000000;stroke-width:2;stroke-linecap:butt;stroke-linejoin:miter;stroke-miterlimit:4;stroke-opacity:1;stroke-dasharray:none;marker-start:url(#DotL);marker-mid:none;marker-end:url(#Arrow1Lend)" />
    <path
       inkscape:connector-curvature="0"
       id="path2991"
       d="M 14.285714,1029.505 511.42857,478.07647"
       style="fill:none;stroke:#000000;stroke-width:2;stroke-linecap:butt;stroke-linejoin:miter;stroke-miterlimit:4;stroke-opacity:1;stroke-dasharray:none;marker-end:url(#Arrow1Lend)" />
    <path
       inkscape:connector-curvature="0"
       id="path4943"
       d="m 505.71429,1032.3622 2.85714,-554.28573"
       style="fill:none;stroke:#000000;stroke-width:2;stroke-linecap:butt;stroke-linejoin:miter;stroke-miterlimit:4;stroke-opacity:1;stroke-dasharray:16, 8;stroke-dashoffset:0" />
    <path
       transform="translate(780,874.28571)"
       sodipodi:open="true"
       sodipodi:end="11.780964"
       sodipodi:start="5.5528507"
       d="m -759.69337,149.97671 c 3.6844,4.11426 3.33593,10.43631 -0.77832,14.12071 -4.11426,3.68439 -10.43631,3.33592 -14.12071,-0.77833 -3.68439,-4.11425 -3.33592,-10.4363 0.77833,-14.1207 3.95493,-3.54172 9.98814,-3.3756 13.74219,0.37839"
       sodipodi:ry="10"
       sodipodi:rx="10"
       sodipodi:cy="156.6479"
       sodipodi:cx="-767.14288"
       id="path4945"
       style="fill:#000000;fill-opacity:0.98799995;stroke:#000000;stroke-width:2;stroke-miterlimit:4;stroke-opacity:1;stroke-dasharray:16, 8;stroke-dashoffset:0"
       sodipodi:type="arc" />
    <path
       sodipodi:open="true"
       sodipodi:end="11.780964"
       sodipodi:start="5.5528507"
       d="m -759.69337,149.97671 c 3.6844,4.11426 3.33593,10.43631 -0.77832,14.12071 -4.11426,3.68439 -10.43631,3.33592 -14.12071,-0.77833 -3.68439,-4.11425 -3.33592,-10.4363 0.77833,-14.1207 3.95493,-3.54172 9.98814,-3.3756 13.74219,0.37839"
       sodipodi:ry="10"
       sodipodi:rx="10"
       sodipodi:cy="156.6479"
       sodipodi:cx="-767.14288"
       id="path4945-8"
       style="fill:#000000;fill-opacity:0.98799995;stroke:#000000;stroke-width:2;stroke-miterlimit:4;stroke-opacity:1;stroke-dasharray:16, 8;stroke-dashoffset:0"
       sodipodi:type="arc"
       transform="translate(1278.5715,324.28567)" />
    <path
       sodipodi:open="true"
       sodipodi:end="11.780964"
       sodipodi:start="5.5528507"
       d="m -759.69337,149.97671 c 3.6844,4.11426 3.33593,10.43631 -0.77832,14.12071 -4.11426,3.68439 -10.43631,3.33592 -14.12071,-0.77833 -3.68439,-4.11425 -3.33592,-10.4363 0.77833,-14.1207 3.95493,-3.54172 9.98814,-3.3756 13.74219,0.37839"
       sodipodi:ry="10"
       sodipodi:rx="10"
       sodipodi:cy="156.6479"
       sodipodi:cx="-767.14288"
       id="path4945-4"
       style="fill:#000000;fill-opacity:0.98799995;stroke:#000000;stroke-width:2;stroke-miterlimit:4;stroke-opacity:1;stroke-dasharray:16, 8;stroke-dashoffset:0"
       sodipodi:type="arc"
       transform="translate(1272.8572,878.57139)" />
    <g
       transform="translate(-368.57143,734.28571)"
       id="g4989">
      <g
         style="font-style:normal;font-variant:normal;font-weight:normal;font-stretch:normal;letter-spacing:normal;word-spacing:normal;text-anchor:start;fill:none;stroke:#000000;stroke-linecap:butt;stroke-linejoin:miter;stroke-miterlimit:10.43299961;stroke-opacity:1;stroke-dasharray:none;stroke-dashoffset:0"
         word-spacing="normal"
         letter-spacing="normal"
         font-size-adjust="none"
         font-stretch="normal"
         font-weight="normal"
         font-variant="normal"
         font-style="normal"
         fill-rule="even-odd"
         stroke-miterlimit="10.433"
         xml:space="preserve"
         transform="matrix(1.0629921,0,0,-1.0629921,-186.02362,789.27165)"
         id="content"><path
           style="fill:#000000;stroke-width:0"
           inkscape:connector-curvature="0"
           id="path4992"
           d="m 471.09,421.74 0.2,1.3 3.39,13.55 c 0.45,1.74 0.55,1.89 2.69,1.89 h 4.78 c 4.14,0 6.78,-1.35 6.78,-4.78 0,-1.95 -1,-6.23 -2.94,-8.02 -2.49,-2.25 -5.48,-2.64 -7.67,-2.64 h -7.03 l -0.2,-1.3 h 8.47 c 7.08,0 14,5.18 14,10.76 0,3.84 -3.29,7.52 -9.81,7.52 h -16.14 c -0.95,0 -1.5,0 -1.5,-0.95 0,-0.59 0.45,-0.59 1.45,-0.59 0.64,0 1.54,-0.05 2.14,-0.1 0.8,-0.1 1.09,-0.25 1.09,-0.8 0,-0.2 -0.04,-0.35 -0.2,-0.94 l -6.67,-26.75 c -0.5,-1.95 -0.6,-2.35 -4.53,-2.35 -0.85,0 -1.4,0 -1.4,-0.94 0,-0.6 0.6,-0.6 0.75,-0.6 h 12.75 c 0.35,0 1,0 1,1 0,0.54 -0.45,0.54 -1.4,0.54 -1.84,0 -3.23,0 -3.23,0.9 0,0.3 0.1,0.55 0.14,0.85 z" /><path
           style="fill:#000000;stroke-width:0"
           inkscape:connector-curvature="0"
           id="path4994"
           d="m 505.99,410.12 0,0.71 -0.02,0.68 -0.03,0.66 -0.04,0.64 -0.06,0.62 -0.08,0.59 -0.09,0.58 -0.11,0.56 -0.12,0.55 -0.15,0.53 -0.17,0.51 -0.19,0.5 -0.21,0.49 -0.24,0.48 -0.26,0.47 -0.14,0.24 -0.15,0.23 c -1.07,1.6 -3.24,2.99 -6.03,2.99 v -0.97 c 1.89,0 3.7,-1.15 4.33,-3.18 0.56,-1.88 0.59,-4.39 0.59,-7.42 0,-2.58 0,-5.17 -0.45,-7.36 -0.7,-3.17 -3.07,-3.94 -4.47,-3.94 h 0 c -1.6,0 -3.73,0.94 -4.43,3.8 -0.49,2.06 -0.49,4.92 -0.49,7.5 0,2.54 0,5.19 0.53,7.11 0.73,2.76 2.96,3.49 4.39,3.49 v 0.97 c -8.09,0 -8.09,-9.52 -8.09,-12.03 0,-2.51 0,-11.82 8.09,-11.82 8.09,0 8.09,9.31 8.09,11.82 z" /></g>    </g>
    <g
       transform="translate(228.57143,97.142857)"
       id="g5036">
      <g
         style="font-style:normal;font-variant:normal;font-weight:normal;font-stretch:normal;letter-spacing:normal;word-spacing:normal;text-anchor:start;fill:none;stroke:#000000;stroke-linecap:butt;stroke-linejoin:miter;stroke-miterlimit:10.43299961;stroke-opacity:1;stroke-dasharray:none;stroke-dashoffset:0"
         id="g5038"
         transform="matrix(1.0629921,0,0,-1.0629921,-186.02362,789.27165)"
         xml:space="preserve"
         stroke-miterlimit="10.433"
         fill-rule="even-odd"
         font-style="normal"
         font-variant="normal"
         font-weight="normal"
         font-stretch="normal"
         font-size-adjust="none"
         letter-spacing="normal"
         word-spacing="normal"><path
           style="fill:#000000;stroke-width:0"
           inkscape:connector-curvature="0"
           d="m 471.09,421.74 0.2,1.3 3.39,13.55 c 0.45,1.74 0.55,1.89 2.69,1.89 h 4.78 c 4.14,0 6.78,-1.35 6.78,-4.78 0,-1.95 -1,-6.23 -2.94,-8.02 -2.49,-2.25 -5.48,-2.64 -7.67,-2.64 h -7.03 l -0.2,-1.3 h 8.47 c 7.08,0 14,5.18 14,10.76 0,3.84 -3.29,7.52 -9.81,7.52 h -16.14 c -0.95,0 -1.5,0 -1.5,-0.95 0,-0.59 0.45,-0.59 1.45,-0.59 0.64,0 1.54,-0.05 2.14,-0.1 0.8,-0.1 1.09,-0.25 1.09,-0.8 0,-0.2 -0.04,-0.35 -0.2,-0.94 l -6.67,-26.75 c -0.5,-1.95 -0.6,-2.35 -4.53,-2.35 -0.85,0 -1.4,0 -1.4,-0.94 0,-0.6 0.6,-0.6 0.75,-0.6 h 12.75 c 0.35,0 1,0 1,1 0,0.54 -0.45,0.54 -1.4,0.54 -1.84,0 -3.23,0 -3.23,0.9 0,0.3 0.1,0.55 0.14,0.85 z"
           id="path5040" /></g>    </g>
    <g
       transform="translate(-120,648.57143)"
       id="g5088">
      <g
         style="font-style:normal;font-variant:normal;font-weight:normal;font-stretch:normal;letter-spacing:normal;word-spacing:normal;text-anchor:start;fill:none;stroke:#000000;stroke-linecap:butt;stroke-linejoin:miter;stroke-miterlimit:10.43299961;stroke-opacity:1;stroke-dasharray:none;stroke-dashoffset:0"
         word-spacing="normal"
         letter-spacing="normal"
         font-size-adjust="none"
         font-stretch="normal"
         font-weight="normal"
         font-variant="normal"
         font-style="normal"
         fill-rule="even-odd"
         stroke-miterlimit="10.433"
         xml:space="preserve"
         transform="matrix(1.0629921,0,0,-1.0629921,-186.02362,789.27165)"
         id="g5090"><path
           style="fill:#000000;stroke-width:0"
           inkscape:connector-curvature="0"
           id="path5092"
           d="m 487.75,448.64 -0.07,-0.06 -0.07,-0.07 -0.08,-0.07 -0.08,-0.07 -0.09,-0.08 -0.09,-0.08 -0.09,-0.09 -0.09,-0.09 -0.1,-0.09 -0.09,-0.09 -0.2,-0.19 -0.19,-0.19 -0.19,-0.21 -0.09,-0.1 -0.09,-0.1 -0.09,-0.1 -0.08,-0.11 -0.08,-0.1 -0.08,-0.1 -0.07,-0.1 -0.06,-0.1 -0.06,-0.1 -0.05,-0.1 -0.05,-0.1 -0.04,-0.09 -0.03,-0.1 -0.02,-0.09 -0.02,-0.09 0,-0.08 c 0,-0.5 0.5,-1 1,-1 0.44,0 0.69,0.35 0.94,0.65 0.6,0.75 1.74,2.14 3.94,3.24 0.35,0.2 0.84,0.45 0.84,1.05 0,0.49 -0.34,0.74 -0.69,0.99 -1.1,0.75 -1.65,1.64 -2.05,2.84 -0.1,0.45 -0.3,1.1 -0.99,1.1 -0.7,0 -1,-0.65 -1,-1.05 0,-0.25 0.4,-1.84 1.2,-2.89 h -16.79 c -0.85,0 -1.74,0 -1.74,-0.99 0,-1 0.89,-1 1.74,-1 z" /><path
           style="fill:#000000;stroke-width:0"
           inkscape:connector-curvature="0"
           id="path5094"
           d="m 481.7,440.02 0,0.01 0,0 0,0.01 0,0.01 0,0.01 0,0.01 0,0.02 0,0.02 -0.01,0.02 0,0.02 -0.01,0.02 0,0.02 -0.01,0.03 -0.01,0.02 -0.01,0.03 -0.01,0.02 -0.02,0.02 -0.01,0.03 -0.02,0.02 -0.02,0.03 -0.03,0.02 -0.01,0.01 -0.01,0.01 -0.01,0.01 -0.02,0.01 -0.01,0.01 -0.02,0.01 -0.01,0.01 -0.02,0.01 -0.02,0.01 -0.02,0.01 -0.01,0.01 -0.02,0 -0.03,0.01 -0.02,0.01 -0.02,0 -0.02,0.01 -0.02,0 -0.03,0.01 -0.02,0 -0.03,0 -0.03,0.01 -0.03,0 -0.03,0 -0.03,0 c -0.74,0 -5.47,-0.45 -6.32,-0.55 -0.4,-0.05 -0.7,-0.3 -0.7,-0.95 0,-0.59 0.45,-0.59 1.2,-0.59 2.39,0 2.49,-0.35 2.49,-0.85 l -0.15,-0.99 -2.99,-11.81 c -0.9,1.84 -2.34,3.19 -4.58,3.19 l 0.05,-1.1 c 3.24,0 3.93,-4.08 3.93,-4.38 0,-0.3 -0.1,-0.6 -0.15,-0.85 l -2.49,-9.76 c -0.25,-0.9 -0.25,-1 -0.99,-1.84 -2.19,-2.75 -4.24,-3.54 -5.63,-3.54 -2.49,0 -3.19,2.74 -3.19,4.68 0,2.49 1.59,8.62 2.74,10.91 1.54,2.94 3.78,4.78 5.78,4.78 l -0.05,1.1 c -5.83,0 -12.01,-7.32 -12.01,-14.6 0,-4.68 2.74,-7.97 6.63,-7.97 0.99,0 3.49,0.2 6.47,3.74 0.4,-2.09 2.14,-3.74 4.53,-3.74 1.75,0 2.9,1.15 3.69,2.74 0.85,1.79 1.5,4.83 1.5,4.93 0,0.5 -0.45,0.5 -0.6,0.5 -0.5,0 -0.55,-0.2 -0.7,-0.89 -0.85,-3.24 -1.74,-6.18 -3.78,-6.18 -1.35,0 -1.5,1.29 -1.5,2.29 0,1.2 0.1,1.54 0.3,2.39 z" /></g>    </g>
    <g
       transform="translate(-111.42857,345.71429)"
       id="g5150">
      <g
         style="font-style:normal;font-variant:normal;font-weight:normal;font-stretch:normal;letter-spacing:normal;word-spacing:normal;text-anchor:start;fill:none;stroke:#000000;stroke-linecap:butt;stroke-linejoin:miter;stroke-miterlimit:10.43299961;stroke-opacity:1;stroke-dasharray:none;stroke-dashoffset:0"
         id="g5152"
         transform="matrix(1.0629921,0,0,-1.0629921,-186.02362,789.27165)"
         xml:space="preserve"
         stroke-miterlimit="10.433"
         fill-rule="even-odd"
         font-style="normal"
         font-variant="normal"
         font-weight="normal"
         font-stretch="normal"
         font-size-adjust="none"
         letter-spacing="normal"
         word-spacing="normal"><path
           style="fill:#000000;stroke-width:0"
           inkscape:connector-curvature="0"
           d="m 488.93,449.46 0.13,0 0.14,0 0.14,0 0.07,0.01 0.07,0 0.07,0.01 0.07,0.01 0.07,0.01 0.06,0.01 0.07,0.01 0.06,0.02 0.07,0.02 0.06,0.02 0.06,0.03 0.06,0.02 0.05,0.04 0.05,0.03 0.05,0.04 0.05,0.04 0.04,0.05 0.02,0.02 0.02,0.03 0.02,0.02 0.02,0.03 0.01,0.03 0.02,0.03 0.01,0.03 0.02,0.04 0.01,0.03 0.01,0.03 0.01,0.04 0.01,0.04 0,0.04 0.01,0.04 0,0.04 0.01,0.04 0,0.05 0,0.04 c 0,1 -0.95,1 -1.64,1 h -27.15 c -0.7,0 -1.65,0 -1.65,-1 0,-0.99 0.95,-0.99 1.65,-0.99 z"
           id="path5154" /><path
           style="fill:#000000;stroke-width:0"
           inkscape:connector-curvature="0"
           d="m 509.93,449.46 0.13,0 0.14,0 0.14,0 0.07,0.01 0.07,0 0.07,0.01 0.07,0.01 0.07,0.01 0.06,0.01 0.07,0.01 0.06,0.02 0.07,0.02 0.06,0.02 0.06,0.03 0.06,0.02 0.05,0.04 0.05,0.03 0.05,0.04 0.05,0.04 0.04,0.05 0.02,0.02 0.02,0.03 0.02,0.02 0.02,0.03 0.01,0.03 0.02,0.03 0.01,0.03 0.02,0.04 0.01,0.03 0.01,0.03 0.01,0.04 0.01,0.04 0,0.04 0.01,0.04 0,0.04 0.01,0.04 0,0.05 0,0.04 c 0,1 -0.95,1 -1.64,1 h -27.15 c -0.7,0 -1.65,0 -1.65,-1 0,-0.99 0.95,-0.99 1.65,-0.99 z"
           id="path5156" /><path
           style="fill:#000000;stroke-width:0"
           inkscape:connector-curvature="0"
           d="m 541.74,449.46 -0.35,-0.26 -0.33,-0.27 -0.32,-0.28 -0.31,-0.28 -0.29,-0.28 -0.28,-0.29 -0.28,-0.29 -0.26,-0.29 -0.25,-0.29 -0.23,-0.29 -0.23,-0.29 -0.21,-0.29 -0.21,-0.29 -0.19,-0.28 -0.18,-0.28 -0.17,-0.27 -0.16,-0.26 -0.15,-0.26 -0.14,-0.24 -0.12,-0.24 -0.12,-0.23 -0.11,-0.21 -0.09,-0.21 -0.09,-0.19 -0.07,-0.17 -0.06,-0.16 -0.06,-0.15 -0.04,-0.12 -0.04,-0.11 -0.02,-0.09 -0.02,-0.07 0,-0.05 c 0,-0.45 0.4,-0.59 0.74,-0.59 0.6,0 0.7,0.3 0.8,0.5 0.75,1.69 2.35,5.32 7.33,7.67 0.59,0.29 0.7,0.35 0.7,0.69 0,0.35 -0.31,0.5 -0.36,0.5 -2.68,1.25 -5.57,3.09 -7.62,7.67 -0.2,0.45 -0.29,0.7 -0.85,0.7 -0.34,0 -0.74,-0.15 -0.74,-0.6 0,-0.4 1.64,-4.53 5.38,-7.27 h -38.31 c -0.74,0 -1.64,0 -1.64,-1 0,-0.99 0.9,-0.99 1.64,-0.99 z"
           id="path5158" /><path
           style="fill:#000000;stroke-width:0"
           inkscape:connector-curvature="0"
           d="m 471.09,419.74 0.2,1.3 3.39,13.55 c 0.45,1.74 0.55,1.89 2.69,1.89 h 4.78 c 4.14,0 6.78,-1.35 6.78,-4.78 0,-1.95 -1,-6.23 -2.94,-8.02 -2.49,-2.25 -5.48,-2.64 -7.67,-2.64 h -7.03 l -0.2,-1.3 h 8.47 c 7.08,0 14,5.18 14,10.76 0,3.84 -3.29,7.52 -9.81,7.52 h -16.14 c -0.95,0 -1.5,0 -1.5,-0.95 0,-0.59 0.45,-0.59 1.45,-0.59 0.64,0 1.54,-0.05 2.14,-0.1 0.8,-0.1 1.09,-0.25 1.09,-0.8 0,-0.2 -0.04,-0.35 -0.2,-0.94 l -6.67,-26.75 c -0.5,-1.95 -0.6,-2.35 -4.53,-2.35 -0.85,0 -1.4,0 -1.4,-0.94 0,-0.6 0.6,-0.6 0.75,-0.6 h 12.75 c 0.35,0 1,0 1,1 0,0.54 -0.45,0.54 -1.4,0.54 -1.84,0 -3.23,0 -3.23,0.9 0,0.3 0.1,0.55 0.14,0.85 z"
           id="path5160" /><path
           style="fill:#000000;stroke-width:0"
           inkscape:connector-curvature="0"
           d="m 505.99,407.12 0,0.71 -0.02,0.68 -0.03,0.66 -0.04,0.64 -0.06,0.62 -0.08,0.59 -0.09,0.58 -0.11,0.56 -0.12,0.55 -0.15,0.53 -0.17,0.51 -0.19,0.5 -0.21,0.49 -0.24,0.48 -0.26,0.47 -0.14,0.24 -0.15,0.23 c -1.07,1.6 -3.24,2.99 -6.03,2.99 v -0.97 c 1.89,0 3.7,-1.15 4.33,-3.18 0.56,-1.88 0.59,-4.39 0.59,-7.42 0,-2.58 0,-5.17 -0.45,-7.36 -0.7,-3.17 -3.07,-3.94 -4.47,-3.94 h 0 c -1.6,0 -3.73,0.94 -4.43,3.8 -0.49,2.06 -0.49,4.92 -0.49,7.5 0,2.54 0,5.19 0.53,7.11 0.73,2.76 2.96,3.49 4.39,3.49 v 0.97 c -8.09,0 -8.09,-9.52 -8.09,-12.03 0,-2.51 0,-11.82 8.09,-11.82 8.09,0 8.09,9.31 8.09,11.82 z"
           id="path5162" /><path
           style="fill:#000000;stroke-width:0"
           inkscape:connector-curvature="0"
           d="m 525.09,419.74 0.2,1.3 3.39,13.55 c 0.45,1.74 0.55,1.89 2.69,1.89 h 4.78 c 4.13,0 6.78,-1.35 6.78,-4.78 0,-1.95 -1,-6.23 -2.94,-8.02 -2.49,-2.25 -5.48,-2.64 -7.67,-2.64 h -7.03 l -0.2,-1.3 h 8.47 c 7.08,0 14,5.18 14,10.76 0,3.84 -3.29,7.52 -9.81,7.52 H 521.6 c -0.94,0 -1.49,0 -1.49,-0.95 0,-0.59 0.45,-0.59 1.45,-0.59 0.64,0 1.54,-0.05 2.14,-0.1 0.8,-0.1 1.09,-0.25 1.09,-0.8 0,-0.2 -0.04,-0.35 -0.2,-0.94 l -6.67,-26.75 c -0.5,-1.95 -0.6,-2.35 -4.53,-2.35 -0.85,0 -1.4,0 -1.4,-0.94 0,-0.6 0.6,-0.6 0.75,-0.6 h 12.75 c 0.35,0 1,0 1,1 0,0.54 -0.45,0.54 -1.4,0.54 -1.84,0 -3.24,0 -3.24,0.9 0,0.3 0.11,0.55 0.15,0.85 z"
           id="path5164" /></g>    </g>
    <g
       id="g5236"
       transform="translate(240,217.14286)">
      <g
         word-spacing="normal"
         letter-spacing="normal"
         font-size-adjust="none"
         font-stretch="normal"
         font-weight="normal"
         font-variant="normal"
         font-style="normal"
         fill-rule="even-odd"
         stroke-miterlimit="10.433"
         xml:space="preserve"
         transform="matrix(0.9736989,0,0,-0.9736989,-170.39731,917.32035)"
         id="g5238"
         style="font-style:normal;font-variant:normal;font-weight:normal;font-stretch:normal;letter-spacing:normal;word-spacing:normal;text-anchor:start;fill:none;stroke:#000000;stroke-linecap:butt;stroke-linejoin:miter;stroke-miterlimit:10.43299961;stroke-opacity:1;stroke-dasharray:none;stroke-dashoffset:0"><path
           id="path5240"
           d="m 470.3,440.02 0,0.01 0,0 0,0.01 0,0.01 0,0.01 -0.01,0.01 0,0.02 0,0.02 0,0.02 -0.01,0.02 0,0.02 -0.01,0.02 -0.01,0.03 -0.01,0.02 -0.01,0.03 -0.01,0.02 -0.01,0.02 -0.02,0.03 -0.02,0.02 -0.02,0.03 -0.02,0.02 -0.01,0.01 -0.02,0.01 -0.01,0.01 -0.01,0.01 -0.02,0.01 -0.01,0.01 -0.02,0.01 -0.02,0.01 -0.01,0.01 -0.02,0.01 -0.02,0.01 -0.02,0 -0.02,0.01 -0.02,0.01 -0.02,0 -0.03,0.01 -0.02,0 -0.03,0.01 -0.02,0 -0.03,0 -0.02,0.01 -0.03,0 -0.03,0 -0.03,0 c -1.15,0 -4.78,-0.4 -6.08,-0.5 -0.4,-0.05 -0.95,-0.1 -0.95,-1 0,-0.59 0.45,-0.59 1.2,-0.59 2.39,0 2.49,-0.35 2.49,-0.85 l -0.15,-0.99 -7.22,-28.7 c -0.2,-0.69 -0.2,-0.8 -0.2,-1.09 0,-1.15 0.99,-1.4 1.44,-1.4 0.8,0 1.6,0.6 1.85,1.3 l 0.94,3.78 c 0.35,1.5 0.75,2.99 1.1,4.49 0.3,1.09 0.6,2.19 0.85,3.34 0.1,0.29 0.49,1.94 0.54,2.23 0.15,0.45 1.7,3.24 3.39,4.59 1.1,0.8 2.64,1.74 4.78,1.74 2.15,0 2.69,-1.69 2.69,-3.49 0,-2.68 -1.89,-8.11 -3.09,-11.15 -0.39,-1.15 -0.64,-1.75 -0.64,-2.74 0,-2.34 1.74,-4.09 4.08,-4.09 4.69,0 6.53,7.28 6.53,7.67 0,0.5 -0.45,0.5 -0.6,0.5 -0.5,0 -0.5,-0.15 -0.75,-0.89 -0.74,-2.64 -2.34,-6.18 -5.08,-6.18 -0.84,0 -1.19,0.5 -1.19,1.64 0,1.25 0.44,2.44 0.89,3.54 0.8,2.14 3.04,8.07 3.04,10.96 0,3.24 -1.99,5.33 -5.72,5.33 -3.15,0 -5.54,-1.55 -7.38,-3.84 z"
           inkscape:connector-curvature="0"
           style="fill:#000000;stroke-width:0" /></g>    </g>
  </g>
</svg>
