<?xml version="1.0" encoding="UTF-8" standalone="no"?>
<!-- Created with Inkscape (http://www.inkscape.org/) -->

<svg
   xmlns:dc="http://purl.org/dc/elements/1.1/"
   xmlns:cc="http://creativecommons.org/ns#"
   xmlns:rdf="http://www.w3.org/1999/02/22-rdf-syntax-ns#"
   xmlns:svg="http://www.w3.org/2000/svg"
   xmlns="http://www.w3.org/2000/svg"
   xmlns:sodipodi="http://sodipodi.sourceforge.net/DTD/sodipodi-0.dtd"
   xmlns:inkscape="http://www.inkscape.org/namespaces/inkscape"
   sodipodi:docname="Plot4(a)A.pdf"
   width="1035.8715"
   height="991.34375"
   id="svg3065"
   version="1.1"
   inkscape:version="0.48.4 r9939">
  <sodipodi:namedview
     id="base"
     pagecolor="#ffffff"
     bordercolor="#666666"
     borderopacity="1.0"
     inkscape:pageopacity="0.0"
     inkscape:pageshadow="2"
     inkscape:zoom="0.35"
     inkscape:cx="518.64999"
     inkscape:cy="457.10657"
     inkscape:document-units="px"
     inkscape:current-layer="layer1"
     showgrid="false"
     inkscape:window-width="1378"
     inkscape:window-height="847"
     inkscape:window-x="1853"
     inkscape:window-y="0"
     inkscape:window-maximized="0"
     fit-margin-top="0"
     fit-margin-left="0"
     fit-margin-right="0"
     fit-margin-bottom="0" />
  <defs
     id="defs3067">
    <marker
       inkscape:stockid="Arrow1Lstart"
       orient="auto"
       refY="0"
       refX="0"
       id="Arrow1Lstart"
       style="overflow:visible">
      <path
         id="path3761"
         d="M 0,0 5,-5 -12.5,0 5,5 0,0 z"
         style="fill-rule:evenodd;stroke:#000000;stroke-width:1pt"
         transform="matrix(0.8,0,0,0.8,10,0)"
         inkscape:connector-curvature="0" />
    </marker>
    <marker
       inkscape:stockid="Arrow1Lend"
       orient="auto"
       refY="0"
       refX="0"
       id="Arrow1Lend"
       style="overflow:visible">
      <path
         id="path3764"
         d="M 0,0 5,-5 -12.5,0 5,5 0,0 z"
         style="fill-rule:evenodd;stroke:#000000;stroke-width:1pt"
         transform="matrix(-0.8,0,0,-0.8,-10,0)"
         inkscape:connector-curvature="0" />
    </marker>
    <marker
       inkscape:stockid="Arrow1Lstart"
       orient="auto"
       refY="0"
       refX="0"
       id="marker3225"
       style="overflow:visible">
      <path
         id="path3227"
         d="M 0,0 5,-5 -12.5,0 5,5 0,0 z"
         style="fill-rule:evenodd;stroke:#000000;stroke-width:1pt"
         transform="matrix(0.8,0,0,0.8,10,0)"
         inkscape:connector-curvature="0" />
    </marker>
    <marker
       inkscape:stockid="Arrow1Lend"
       orient="auto"
       refY="0"
       refX="0"
       id="marker3229"
       style="overflow:visible">
      <path
         id="path3231"
         d="M 0,0 5,-5 -12.5,0 5,5 0,0 z"
         style="fill-rule:evenodd;stroke:#000000;stroke-width:1pt"
         transform="matrix(-0.8,0,0,-0.8,-10,0)"
         inkscape:connector-curvature="0" />
    </marker>
  </defs>
  <metadata
     id="metadata3070">
    <rdf:RDF>
      <cc:Work
         rdf:about="">
        <dc:format>image/svg+xml</dc:format>
        <dc:type
           rdf:resource="http://purl.org/dc/dcmitype/StillImage" />
        <dc:title></dc:title>
      </cc:Work>
    </rdf:RDF>
  </metadata>
  <g
     inkscape:label="Layer 1"
     inkscape:groupmode="layer"
     id="layer1"
     transform="translate(143.64999,1.875)">
    <path
       id="path3240"
       title="x*abs(x)"
       d="M 1.8571422e-7,989.11392 C 12.932331,954.35623 25.864663,921.42616 38.796994,890.3237 c 12.932331,-31.10245 25.864662,-60.36996 38.796994,-87.81352 12.932331,-27.44356 25.864662,-53.05217 38.796992,-76.83683 12.93233,-23.78466 25.86466,-45.73438 38.79699,-65.86015 12.93234,-20.12576 25.86467,-38.41658 38.797,-54.88345 12.93233,-16.46686 25.86466,-31.09879 38.79699,-43.90676 12.93233,-12.80797 25.86466,-23.781 38.797,-32.93007 12.93233,-9.14907 25.86466,-16.46321 38.79699,-21.95338 12.93233,-5.49018 25.86466,-9.14541 38.79699,-10.97669 12.93233,-1.83128 25.86467,-0.91656 38.797,-2.74417 12.93233,-1.82762 25.86466,-5.49018 38.79699,-10.97669 12.93233,-5.48652 25.86466,-12.80797 38.79699,-21.95339 12.93234,-9.14541 25.86467,-20.12576 38.797,-32.93007 12.93233,-12.80431 25.86466,-27.44355 38.79699,-43.90676 12.93233,-16.4632 25.86466,-34.76135 38.797,-54.88345 12.93233,-20.1221 25.86466,-42.07914 38.79699,-65.86014 12.93233,-23.781 25.86466,-49.39694 38.79699,-76.83684 12.93233,-27.43989 25.86467,-56.71473 38.797,-87.813519 12.93233,-31.098793 25.86466,-64.032524 38.79699,-98.7902138"
       style="fill:none;stroke:#000000;stroke-width:2;stroke-miterlimit:4;stroke-opacity:1;stroke-dasharray:none;stroke-dashoffset:0"
       inkscape:connector-curvature="0" />
    <path
       style="fill:none;stroke:#000000;stroke-width:2;stroke-linecap:butt;stroke-linejoin:miter;stroke-miterlimit:4;stroke-opacity:1;stroke-dasharray:none;marker-start:url(#Arrow1Lstart);marker-end:url(#Arrow1Lend)"
       d="m 365.7143,36.647895 1e-5,905.714295"
       id="path2985"
       inkscape:connector-curvature="0"
       sodipodi:nodetypes="cc" />
    <path
       style="fill:none;stroke:#000000;stroke-width:2;stroke-linecap:butt;stroke-linejoin:miter;stroke-miterlimit:4;stroke-opacity:1;stroke-dasharray:none;marker-start:url(#Arrow1Lstart);marker-end:url(#Arrow1Lend)"
       d="m -139.99999,493.7962 1028.5714,-0.0109"
       id="path2987"
       inkscape:connector-curvature="0"
       sodipodi:nodetypes="cc" />
  </g>
</svg>
