<?xml version="1.0" encoding="UTF-8" standalone="no"?>
<!-- Created with Inkscape (http://www.inkscape.org/) -->

<svg
   xmlns:dc="http://purl.org/dc/elements/1.1/"
   xmlns:cc="http://creativecommons.org/ns#"
   xmlns:rdf="http://www.w3.org/1999/02/22-rdf-syntax-ns#"
   xmlns:svg="http://www.w3.org/2000/svg"
   xmlns="http://www.w3.org/2000/svg"
   xmlns:sodipodi="http://sodipodi.sourceforge.net/DTD/sodipodi-0.dtd"
   xmlns:inkscape="http://www.inkscape.org/namespaces/inkscape"
   sodipodi:docname="SD5(a)A.pdf"
   inkscape:version="0.48.4 r9939"
   version="1.1"
   id="svg2"
   height="125.27857"
   width="1173.0143">
  <sodipodi:namedview
     id="base"
     pagecolor="#ffffff"
     bordercolor="#666666"
     borderopacity="1.0"
     inkscape:pageopacity="0.0"
     inkscape:pageshadow="2"
     inkscape:zoom="0.35"
     inkscape:cx="607.64876"
     inkscape:cy="79.686822"
     inkscape:document-units="px"
     inkscape:current-layer="svg2"
     showgrid="false"
     inkscape:window-width="1228"
     inkscape:window-height="758"
     inkscape:window-x="2059"
     inkscape:window-y="0"
     inkscape:window-maximized="0"
     fit-margin-top="0"
     fit-margin-left="0"
     fit-margin-right="0"
     fit-margin-bottom="0" />
  <defs
     id="defs4">
    <marker
       style="overflow:visible"
       id="Arrow1Lend"
       refX="0"
       refY="0"
       orient="auto"
       inkscape:stockid="Arrow1Lend">
      <path
         transform="matrix(-0.8,0,0,-0.8,-10,0)"
         style="fill-rule:evenodd;stroke:#000000;stroke-width:1pt"
         d="M 0,0 5,-5 -12.5,0 5,5 0,0 z"
         id="path3762"
         inkscape:connector-curvature="0" />
    </marker>
    <marker
       style="overflow:visible"
       id="Arrow1Lstart"
       refX="0"
       refY="0"
       orient="auto"
       inkscape:stockid="Arrow1Lstart">
      <path
         transform="matrix(0.8,0,0,0.8,10,0)"
         style="fill-rule:evenodd;stroke:#000000;stroke-width:1pt"
         d="M 0,0 5,-5 -12.5,0 5,5 0,0 z"
         id="path3759"
         inkscape:connector-curvature="0" />
    </marker>
  </defs>
  <metadata
     id="metadata7">
    <rdf:RDF>
      <cc:Work
         rdf:about="">
        <dc:format>image/svg+xml</dc:format>
        <dc:type
           rdf:resource="http://purl.org/dc/dcmitype/StillImage" />
        <dc:title></dc:title>
      </cc:Work>
    </rdf:RDF>
  </metadata>
  <g
     id="layer1"
     inkscape:groupmode="layer"
     inkscape:label="Layer 1"
     transform="translate(229.36428,-486.77043)">
    <path
       inkscape:connector-curvature="0"
       id="path2985"
       d="m -225.71429,549.50504 1168.57143,0"
       style="fill:none;stroke:#000000;stroke-width:2;stroke-linecap:butt;stroke-linejoin:miter;stroke-miterlimit:4;stroke-opacity:1;stroke-dasharray:none;marker-start:url(#Arrow1Lstart);marker-end:url(#Arrow1Lend)"
       sodipodi:nodetypes="cc" />
    <path
       sodipodi:open="true"
       sodipodi:end="10.002076"
       sodipodi:start="4.5087759"
       transform="translate(1437.142,341.01842)"
       d="m -827.44752,197.23511 a 8.5714283,8.5714283 0 1 1 -5.44912,3.7164"
       sodipodi:ry="8.5714283"
       sodipodi:rx="8.5714283"
       sodipodi:cy="205.62947"
       sodipodi:cx="-825.71429"
       id="path4271"
       style="fill:#000000;fill-opacity:0.98000004;stroke:#000000;stroke-width:2;stroke-miterlimit:4;stroke-opacity:1;stroke-dasharray:none;stroke-dashoffset:0"
       sodipodi:type="arc" />
    <path
       sodipodi:open="true"
       sodipodi:end="10.002076"
       sodipodi:start="4.5087759"
       transform="translate(1011.4277,343.87557)"
       d="m -827.44752,197.23511 c 4.63608,-0.95723 9.17036,2.02506 10.12759,6.66114 0.95723,4.63608 -2.02507,9.17035 -6.66114,10.12758 -4.63608,0.95724 -9.17036,-2.02506 -10.12759,-6.66114 -0.45698,-2.21327 -0.0214,-4.51747 1.21202,-6.41118"
       sodipodi:ry="8.5714283"
       sodipodi:rx="8.5714283"
       sodipodi:cy="205.62947"
       sodipodi:cx="-825.71429"
       id="path4271-5"
       style="fill:#000000;fill-opacity:0.98000004;stroke:#000000;stroke-width:2;stroke-miterlimit:4;stroke-opacity:1;stroke-dasharray:none;stroke-dashoffset:0"
       sodipodi:type="arc" />
    <g
       id="g4446"
       transform="translate(477.14286,165.71429)">
      <g
         word-spacing="normal"
         letter-spacing="normal"
         font-size-adjust="none"
         font-stretch="normal"
         font-weight="normal"
         font-variant="normal"
         font-style="normal"
         fill-rule="even-odd"
         stroke-miterlimit="10.433"
         xml:space="preserve"
         transform="matrix(1.0629921,0,0,-1.0629921,-186.02362,789.27165)"
         id="content"
         style="font-style:normal;font-variant:normal;font-weight:normal;font-stretch:normal;letter-spacing:normal;word-spacing:normal;text-anchor:start;fill:none;stroke:#000000;stroke-linecap:butt;stroke-linejoin:miter;stroke-miterlimit:10.43299961;stroke-opacity:1;stroke-dasharray:none;stroke-dashoffset:0"><path
           id="path4449"
           d="m 476.38,417.46 h 13.89 c 0.7,0 1.64,0 1.64,0.99 0,1 -0.94,1 -1.64,1 h -13.89 v 13.95 c 0,0.69 0,1.64 -1,1.64 -1,0 -1,-0.95 -1,-1.64 v -13.95 h -13.95 c -0.7,0 -1.64,0 -1.64,-1 0,-0.99 0.94,-0.99 1.64,-0.99 h 13.95 v -13.95 c 0,-0.7 0,-1.64 1,-1.64 1,0 1,0.94 1,1.64 z"
           inkscape:connector-curvature="0"
           style="fill:#000000;stroke-width:0" /></g>    </g>
    <g
       id="g4479"
       transform="translate(-285.71429,165.71429)">
      <g
         id="g4481"
         transform="matrix(1.0629921,0,0,-1.0629921,-186.02362,789.27165)"
         xml:space="preserve"
         stroke-miterlimit="10.433"
         fill-rule="even-odd"
         font-style="normal"
         font-variant="normal"
         font-weight="normal"
         font-stretch="normal"
         font-size-adjust="none"
         letter-spacing="normal"
         word-spacing="normal"
         style="font-style:normal;font-variant:normal;font-weight:normal;font-stretch:normal;letter-spacing:normal;word-spacing:normal;text-anchor:start;fill:none;stroke:#000000;stroke-linecap:butt;stroke-linejoin:miter;stroke-miterlimit:10.43299961;stroke-opacity:1;stroke-dasharray:none;stroke-dashoffset:0"><path
           d="m 476.38,417.46 h 13.89 c 0.7,0 1.64,0 1.64,0.99 0,1 -0.94,1 -1.64,1 h -13.89 v 13.95 c 0,0.69 0,1.64 -1,1.64 -1,0 -1,-0.95 -1,-1.64 v -13.95 h -13.95 c -0.7,0 -1.64,0 -1.64,-1 0,-0.99 0.94,-0.99 1.64,-0.99 h 13.95 v -13.95 c 0,-0.7 0,-1.64 1,-1.64 1,0 1,0.94 1,1.64 z"
           id="path4483"
           inkscape:connector-curvature="0"
           style="fill:#000000;stroke-width:0" /></g>    </g>
    <g
       id="g4519"
       transform="translate(80,162.85714)">
      <g
         word-spacing="normal"
         letter-spacing="normal"
         font-size-adjust="none"
         font-stretch="normal"
         font-weight="normal"
         font-variant="normal"
         font-style="normal"
         fill-rule="even-odd"
         stroke-miterlimit="10.433"
         xml:space="preserve"
         transform="matrix(1.0629921,0,0,-1.0629921,-186.02362,789.27165)"
         id="g4521"
         style="font-style:normal;font-variant:normal;font-weight:normal;font-stretch:normal;letter-spacing:normal;word-spacing:normal;text-anchor:start;fill:none;stroke:#000000;stroke-linecap:butt;stroke-linejoin:miter;stroke-miterlimit:10.43299961;stroke-opacity:1;stroke-dasharray:none;stroke-dashoffset:0"><path
           id="path4523"
           d="m 488.93,417.46 0.13,0 0.14,0 0.14,0 0.07,0.01 0.07,0 0.07,0.01 0.07,0.01 0.07,0.01 0.06,0.01 0.07,0.01 0.06,0.02 0.07,0.02 0.06,0.02 0.06,0.03 0.06,0.02 0.05,0.04 0.05,0.03 0.05,0.04 0.05,0.04 0.04,0.05 0.02,0.02 0.02,0.03 0.02,0.02 0.02,0.03 0.01,0.03 0.02,0.03 0.01,0.03 0.02,0.04 0.01,0.03 0.01,0.03 0.01,0.04 0.01,0.04 0,0.04 0.01,0.04 0,0.04 0.01,0.04 0,0.05 0,0.04 c 0,1 -0.95,1 -1.64,1 h -27.15 c -0.7,0 -1.65,0 -1.65,-1 0,-0.99 0.95,-0.99 1.65,-0.99 z"
           inkscape:connector-curvature="0"
           style="fill:#000000;stroke-width:0" /></g>    </g>
    <g
       id="g4565"
       transform="translate(-157.14286,254.28571)">
      <g
         id="g4567"
         transform="matrix(1.0629921,0,0,-1.0629921,-186.02362,789.27165)"
         xml:space="preserve"
         stroke-miterlimit="10.433"
         fill-rule="even-odd"
         font-style="normal"
         font-variant="normal"
         font-weight="normal"
         font-stretch="normal"
         font-size-adjust="none"
         letter-spacing="normal"
         word-spacing="normal"
         style="font-style:normal;font-variant:normal;font-weight:normal;font-stretch:normal;letter-spacing:normal;word-spacing:normal;text-anchor:start;fill:none;stroke:#000000;stroke-linecap:butt;stroke-linejoin:miter;stroke-miterlimit:10.43299961;stroke-opacity:1;stroke-dasharray:none;stroke-dashoffset:0"><path
           d="m 488.93,417.46 0.13,0 0.14,0 0.14,0 0.07,0.01 0.07,0 0.07,0.01 0.07,0.01 0.07,0.01 0.06,0.01 0.07,0.01 0.06,0.02 0.07,0.02 0.06,0.02 0.06,0.03 0.06,0.02 0.05,0.04 0.05,0.03 0.05,0.04 0.05,0.04 0.04,0.05 0.02,0.02 0.02,0.03 0.02,0.02 0.02,0.03 0.01,0.03 0.02,0.03 0.01,0.03 0.02,0.04 0.01,0.03 0.01,0.03 0.01,0.04 0.01,0.04 0,0.04 0.01,0.04 0,0.04 0.01,0.04 0,0.05 0,0.04 c 0,1 -0.95,1 -1.64,1 h -27.15 c -0.7,0 -1.65,0 -1.65,-1 0,-0.99 0.95,-0.99 1.65,-0.99 z"
           id="path4569"
           inkscape:connector-curvature="0"
           style="fill:#000000;stroke-width:0" /><path
           d="m 516.37,414.67 h -1.25 c -0.25,-1.5 -0.6,-3.69 -1.1,-4.44 -0.34,-0.39 -3.63,-0.39 -4.73,-0.39 h -8.96 l 5.28,5.12 c 7.77,6.88 10.76,9.57 10.76,14.55 0,5.68 -4.49,9.67 -10.57,9.67 -5.62,0 -9.31,-4.59 -9.31,-9.02 0,-2.79 2.49,-2.79 2.64,-2.79 0.85,0 2.59,0.6 2.59,2.64 0,1.29 -0.9,2.59 -2.64,2.59 -0.4,0 -0.5,0 -0.65,-0.05 1.15,3.24 3.84,5.08 6.73,5.08 4.53,0 6.67,-4.03 6.67,-8.12 0,-3.98 -2.49,-7.92 -5.23,-11.01 l -9.56,-10.66 c -0.55,-0.54 -0.55,-0.64 -0.55,-1.84 h 18.48 z"
           id="path4571"
           inkscape:connector-curvature="0"
           style="fill:#000000;stroke-width:0" /></g>    </g>
    <g
       id="g4621"
       transform="translate(300,245.71428)">
      <g
         word-spacing="normal"
         letter-spacing="normal"
         font-size-adjust="none"
         font-stretch="normal"
         font-weight="normal"
         font-variant="normal"
         font-style="normal"
         fill-rule="even-odd"
         stroke-miterlimit="10.433"
         xml:space="preserve"
         transform="matrix(1.0629921,0,0,-1.0629921,-186.02362,789.27165)"
         id="g4623"
         style="font-style:normal;font-variant:normal;font-weight:normal;font-stretch:normal;letter-spacing:normal;word-spacing:normal;text-anchor:start;fill:none;stroke:#000000;stroke-linecap:butt;stroke-linejoin:miter;stroke-miterlimit:10.43299961;stroke-opacity:1;stroke-dasharray:none;stroke-dashoffset:0"><path
           id="path4625"
           d="m 457.39,414.22 h 13.25 v -4.33 c 0,-1.8 -0.09,-2.35 -3.78,-2.35 h -1.05 V 406 c 2.05,0.15 4.64,0.15 6.73,0.15 2.09,0 4.73,0 6.77,-0.15 v 1.54 h -1.04 c -3.69,0 -3.79,0.55 -3.79,2.35 v 4.33 h 4.98 v 1.54 h -4.98 v 22.67 c 0,1 0,1.29 -0.8,1.29 -0.45,0 -0.59,0 -0.99,-0.6 l -15.3,-23.36 h 1.4 l 12.16,18.58 v -18.58 h -12.16 -1.4 z"
           inkscape:connector-curvature="0"
           style="fill:#000000;stroke-width:0" /></g>    </g>
  </g>
</svg>
