<?xml version="1.0" encoding="UTF-8" standalone="no"?>
<!-- Created with Inkscape (http://www.inkscape.org/) -->

<svg
   xmlns:dc="http://purl.org/dc/elements/1.1/"
   xmlns:cc="http://creativecommons.org/ns#"
   xmlns:rdf="http://www.w3.org/1999/02/22-rdf-syntax-ns#"
   xmlns:svg="http://www.w3.org/2000/svg"
   xmlns="http://www.w3.org/2000/svg"
   xmlns:sodipodi="http://sodipodi.sourceforge.net/DTD/sodipodi-0.dtd"
   xmlns:inkscape="http://www.inkscape.org/namespaces/inkscape"
   width="640.71747"
   height="545.02179"
   id="svg2"
   version="1.1"
   inkscape:version="0.48.4 r9939"
   sodipodi:docname="digraph.pdf">
  <defs
     id="defs4">
    <marker
       inkscape:stockid="Arrow1Lend"
       orient="auto"
       refY="0"
       refX="0"
       id="Arrow1Lend"
       style="overflow:visible">
      <path
         id="path3803"
         d="M 0,0 5,-5 -12.5,0 5,5 0,0 z"
         style="fill-rule:evenodd;stroke:#000000;stroke-width:1pt"
         transform="matrix(-0.8,0,0,-0.8,-10,0)"
         inkscape:connector-curvature="0" />
    </marker>
    <marker
       inkscape:stockid="Arrow1Lstart"
       orient="auto"
       refY="0"
       refX="0"
       id="Arrow1Lstart"
       style="overflow:visible">
      <path
         id="path3800"
         d="M 0,0 5,-5 -12.5,0 5,5 0,0 z"
         style="fill-rule:evenodd;stroke:#000000;stroke-width:1pt"
         transform="matrix(0.8,0,0,0.8,10,0)"
         inkscape:connector-curvature="0" />
    </marker>
    <marker
       inkscape:stockid="Arrow1Lend"
       orient="auto"
       refY="0"
       refX="0"
       id="Arrow1Lend-6"
       style="overflow:visible">
      <path
         inkscape:connector-curvature="0"
         id="path3803-2"
         d="M 0,0 5,-5 -12.5,0 5,5 0,0 z"
         style="fill-rule:evenodd;stroke:#000000;stroke-width:1pt"
         transform="matrix(-0.8,0,0,-0.8,-10,0)" />
    </marker>
    <marker
       inkscape:stockid="Arrow1Lend"
       orient="auto"
       refY="0"
       refX="0"
       id="Arrow1Lend-3"
       style="overflow:visible">
      <path
         inkscape:connector-curvature="0"
         id="path3803-21"
         d="M 0,0 5,-5 -12.5,0 5,5 0,0 z"
         style="fill-rule:evenodd;stroke:#000000;stroke-width:1pt"
         transform="matrix(-0.8,0,0,-0.8,-10,0)" />
    </marker>
    <marker
       inkscape:stockid="Arrow1Lend"
       orient="auto"
       refY="0"
       refX="0"
       id="Arrow1Lend-64"
       style="overflow:visible">
      <path
         inkscape:connector-curvature="0"
         id="path3803-3"
         d="M 0,0 5,-5 -12.5,0 5,5 0,0 z"
         style="fill-rule:evenodd;stroke:#000000;stroke-width:1pt"
         transform="matrix(-0.8,0,0,-0.8,-10,0)" />
    </marker>
    <marker
       inkscape:stockid="Arrow1Lend"
       orient="auto"
       refY="0"
       refX="0"
       id="Arrow1Lend-5"
       style="overflow:visible">
      <path
         inkscape:connector-curvature="0"
         id="path3803-4"
         d="M 0,0 5,-5 -12.5,0 5,5 0,0 z"
         style="fill-rule:evenodd;stroke:#000000;stroke-width:1pt"
         transform="matrix(-0.8,0,0,-0.8,-10,0)" />
    </marker>
  </defs>
  <sodipodi:namedview
     id="base"
     pagecolor="#ffffff"
     bordercolor="#666666"
     borderopacity="1.0"
     inkscape:pageopacity="0.0"
     inkscape:pageshadow="2"
     inkscape:zoom="0.35"
     inkscape:cx="-141.87779"
     inkscape:cy="175.55688"
     inkscape:document-units="px"
     inkscape:current-layer="layer1"
     showgrid="false"
     fit-margin-top="0"
     fit-margin-left="0"
     fit-margin-right="0"
     fit-margin-bottom="0"
     inkscape:window-width="1207"
     inkscape:window-height="851"
     inkscape:window-x="215"
     inkscape:window-y="0"
     inkscape:window-maximized="0" />
  <metadata
     id="metadata7">
    <rdf:RDF>
      <cc:Work
         rdf:about="">
        <dc:format>image/svg+xml</dc:format>
        <dc:type
           rdf:resource="http://purl.org/dc/dcmitype/StillImage" />
        <dc:title></dc:title>
      </cc:Work>
    </rdf:RDF>
  </metadata>
  <g
     inkscape:label="Layer 1"
     inkscape:groupmode="layer"
     id="layer1"
     transform="translate(1.6936338,-162.89729)">
    <path
       sodipodi:type="arc"
       style="fill:#000000;fill-opacity:1;stroke:#000000;stroke-width:2.5;stroke-miterlimit:4;stroke-opacity:1;stroke-dasharray:none;stroke-dashoffset:0"
       id="path2985"
       sodipodi:cx="154.28572"
       sodipodi:cy="386.64789"
       sodipodi:rx="11.428572"
       sodipodi:ry="11.428572"
       d="m 154.63067,375.22452 c 6.30895,0.19052 11.26893,5.45937 11.07842,11.76832 -0.19052,6.30895 -5.45937,11.26892 -11.76832,11.07841 -6.30895,-0.19051 -11.26893,-5.45936 -11.07841,-11.76831 0.18965,-6.2805 5.41381,-11.22994 11.69539,-11.08039"
       sodipodi:start="4.7425769"
       sodipodi:end="11.019379"
       sodipodi:open="true" />
    <path
       transform="translate(151.42856,-97.142868)"
       sodipodi:type="arc"
       style="fill:#000000;fill-opacity:1;stroke:#000000;stroke-width:2.5;stroke-miterlimit:4;stroke-opacity:1;stroke-dasharray:none;stroke-dashoffset:0"
       id="path2985-4"
       sodipodi:cx="154.28572"
       sodipodi:cy="386.64789"
       sodipodi:rx="11.428572"
       sodipodi:ry="11.428572"
       d="m 154.63067,375.22452 c 6.30895,0.19052 11.26893,5.45937 11.07842,11.76832 -0.19052,6.30895 -5.45937,11.26892 -11.76832,11.07841 -6.30895,-0.19051 -11.26893,-5.45936 -11.07841,-11.76831 0.18965,-6.2805 5.41381,-11.22994 11.69539,-11.08039"
       sodipodi:start="4.7425769"
       sodipodi:end="11.019379"
       sodipodi:open="true" />
    <path
       transform="translate(71.428565,174.2857)"
       sodipodi:type="arc"
       style="fill:#000000;fill-opacity:1;stroke:#000000;stroke-width:2.5;stroke-miterlimit:4;stroke-opacity:1;stroke-dasharray:none;stroke-dashoffset:0"
       id="path2985-48"
       sodipodi:cx="154.28572"
       sodipodi:cy="386.64789"
       sodipodi:rx="11.428572"
       sodipodi:ry="11.428572"
       d="m 154.63067,375.22452 c 6.30895,0.19052 11.26893,5.45937 11.07842,11.76832 -0.19052,6.30895 -5.45937,11.26892 -11.76832,11.07841 -6.30895,-0.19051 -11.26893,-5.45936 -11.07841,-11.76831 0.18965,-6.2805 5.41381,-11.22994 11.69539,-11.08039"
       sodipodi:start="4.7425769"
       sodipodi:end="11.019379"
       sodipodi:open="true" />
    <path
       transform="translate(382.85714,-5.7142961)"
       sodipodi:type="arc"
       style="fill:#000000;fill-opacity:1;stroke:#000000;stroke-width:2.5;stroke-miterlimit:4;stroke-opacity:1;stroke-dasharray:none;stroke-dashoffset:0"
       id="path2985-3"
       sodipodi:cx="154.28572"
       sodipodi:cy="386.64789"
       sodipodi:rx="11.428572"
       sodipodi:ry="11.428572"
       d="m 154.63067,375.22452 c 6.30895,0.19052 11.26893,5.45937 11.07842,11.76832 -0.19052,6.30895 -5.45937,11.26892 -11.76832,11.07841 -6.30895,-0.19051 -11.26893,-5.45936 -11.07841,-11.76831 0.18965,-6.2805 5.41381,-11.22994 11.69539,-11.08039"
       sodipodi:start="4.7425769"
       sodipodi:end="11.019379"
       sodipodi:open="true" />
    <path
       transform="translate(328.57142,162.85713)"
       sodipodi:type="arc"
       style="fill:#000000;fill-opacity:1;stroke:#000000;stroke-width:2.5;stroke-miterlimit:4;stroke-opacity:1;stroke-dasharray:none;stroke-dashoffset:0"
       id="path2985-36"
       sodipodi:cx="154.28572"
       sodipodi:cy="386.64789"
       sodipodi:rx="11.428572"
       sodipodi:ry="11.428572"
       d="m 154.63067,375.22452 c 6.30895,0.19052 11.26893,5.45937 11.07842,11.76832 -0.19052,6.30895 -5.45937,11.26892 -11.76832,11.07841 -6.30895,-0.19051 -11.26893,-5.45936 -11.07841,-11.76831 0.18965,-6.2805 5.41381,-11.22994 11.69539,-11.08039"
       sodipodi:start="4.7425769"
       sodipodi:end="11.019379"
       sodipodi:open="true" />
    <path
       sodipodi:type="arc"
       style="fill:none;stroke:#000000;stroke-width:2.5;stroke-miterlimit:4;stroke-opacity:1;stroke-dasharray:none;stroke-dashoffset:0;marker-end:url(#Arrow1Lend)"
       id="path3794"
       sodipodi:cx="-664.28571"
       sodipodi:cy="93.790756"
       sodipodi:rx="72.85714"
       sodipodi:ry="72.85714"
       d="m -679.01808,22.438672 c 39.40667,-8.136466 77.94799,17.213041 86.08446,56.619709 8.13646,39.406669 -17.21304,77.947989 -56.61971,86.084459 -39.40667,8.13647 -77.94799,-17.21304 -86.08446,-56.61971 -3.88437,-18.81283 -0.18175,-38.398474 10.30215,-54.495021"
       sodipodi:start="4.5087759"
       sodipodi:end="10.002076"
       sodipodi:open="true"
       transform="translate(925.71429,540)" />
    <path
       sodipodi:type="arc"
       style="fill:none;stroke:#000000;stroke-width:2.5;stroke-miterlimit:4;stroke-opacity:1;stroke-dasharray:none;stroke-dashoffset:0;marker-end:url(#Arrow1Lend)"
       id="path3794-1"
       sodipodi:cx="-664.28571"
       sodipodi:cy="93.790756"
       sodipodi:rx="72.85714"
       sodipodi:ry="72.85714"
       d="m -679.01808,22.438672 c 39.40667,-8.136466 77.94799,17.213041 86.08446,56.619709 8.13646,39.406669 -17.21304,77.947989 -56.61971,86.084459 -39.40667,8.13647 -77.94799,-17.21304 -86.08446,-56.61971 -3.88437,-18.81283 -0.18175,-38.398474 10.30215,-54.495021"
       sodipodi:start="4.5087759"
       sodipodi:end="10.002076"
       sodipodi:open="true"
       transform="translate(1186.4011,510)" />
    <path
       sodipodi:type="arc"
       style="fill:none;stroke:#000000;stroke-width:2.5;stroke-miterlimit:4;stroke-opacity:1;stroke-dasharray:none;stroke-dashoffset:0;marker-end:url(#Arrow1Lend)"
       id="path3794-5"
       sodipodi:cx="-664.28571"
       sodipodi:cy="93.790756"
       sodipodi:rx="72.85714"
       sodipodi:ry="72.85714"
       d="m -679.01808,22.438672 c 39.40667,-8.136466 77.94799,17.213041 86.08446,56.619709 8.13646,39.406669 -17.21304,77.947989 -56.61971,86.084459 -39.40667,8.13647 -77.94799,-17.21304 -86.08446,-56.61971 -3.88437,-18.81283 -0.18175,-38.398474 10.30215,-54.495021"
       sodipodi:start="4.5087759"
       sodipodi:end="10.002076"
       sodipodi:open="true"
       transform="matrix(-0.60370587,0.79720714,-0.79720714,-0.60370587,-253.84649,976.22796)" />
    <path
       sodipodi:type="arc"
       style="fill:none;stroke:#000000;stroke-width:2.5;stroke-miterlimit:4;stroke-opacity:1;stroke-dasharray:none;stroke-dashoffset:0;marker-end:url(#Arrow1Lend)"
       id="path3794-5-0"
       sodipodi:cx="-664.28571"
       sodipodi:cy="93.790756"
       sodipodi:rx="72.85714"
       sodipodi:ry="72.85714"
       d="m -679.01808,22.438672 c 39.40667,-8.136466 77.94799,17.213041 86.08446,56.619709 8.13646,39.406669 -17.21304,77.947989 -56.61971,86.084459 -39.40667,8.13647 -77.94799,-17.21304 -86.08446,-56.61971 -3.88437,-18.81283 -0.18175,-38.398474 10.30215,-54.495021"
       sodipodi:start="4.5087759"
       sodipodi:end="10.002076"
       sodipodi:open="true"
       transform="matrix(-0.99798371,-0.06347054,0.06347054,-0.99798371,-396.27893,288.45918)" />
    <path
       sodipodi:type="arc"
       style="fill:none;stroke:#000000;stroke-width:2.5;stroke-miterlimit:4;stroke-opacity:1;stroke-dasharray:none;stroke-dashoffset:0;marker-end:url(#Arrow1Lend)"
       id="path3794-5-9"
       sodipodi:cx="-664.28571"
       sodipodi:cy="93.790756"
       sodipodi:rx="72.85714"
       sodipodi:ry="72.85714"
       d="m -679.01808,22.438672 c 39.40667,-8.136466 77.94799,17.213041 86.08446,56.619709 8.13646,39.406669 -17.21304,77.947989 -56.61971,86.084459 -39.40667,8.13647 -77.94799,-17.21304 -86.08446,-56.61971 -3.88437,-18.81283 -0.18175,-38.398474 10.30215,-54.495021"
       sodipodi:start="4.5087759"
       sodipodi:end="10.002076"
       sodipodi:open="true"
       transform="matrix(-0.51581607,-0.85669935,0.85669935,-0.51581607,141.91219,-200.63306)" />
    <text
       xml:space="preserve"
       style="font-size:40px;font-style:normal;font-weight:normal;line-height:125%;letter-spacing:0px;word-spacing:0px;fill:#000000;fill-opacity:1;stroke:none;font-family:Sans"
       x="88.571426"
       y="380.93362"
       id="text4496"
       sodipodi:linespacing="125%"><tspan
         sodipodi:role="line"
         id="tspan4498"
         x="88.571426"
         y="380.93362">1</tspan></text>
    <text
       xml:space="preserve"
       style="font-size:40px;font-style:normal;font-weight:normal;line-height:125%;letter-spacing:0px;word-spacing:0px;fill:#000000;fill-opacity:1;stroke:none;font-family:Sans"
       x="274.28571"
       y="260.93362"
       id="text4500"
       sodipodi:linespacing="125%"><tspan
         sodipodi:role="line"
         id="tspan4502"
         x="274.28571"
         y="260.93362">2</tspan></text>
    <text
       xml:space="preserve"
       style="font-size:40px;font-style:normal;font-weight:normal;line-height:125%;letter-spacing:0px;word-spacing:0px;fill:#000000;fill-opacity:1;stroke:none;font-family:Sans"
       x="225.71429"
       y="618.07648"
       id="text4504"
       sodipodi:linespacing="125%"><tspan
         sodipodi:role="line"
         id="tspan4506"
         x="225.71429"
         y="618.07648">3</tspan></text>
    <text
       xml:space="preserve"
       style="font-size:40px;font-style:normal;font-weight:normal;line-height:125%;letter-spacing:0px;word-spacing:0px;fill:#000000;fill-opacity:1;stroke:none;font-family:Sans"
       x="545.71429"
       y="329.50504"
       id="text4508"
       sodipodi:linespacing="125%"><tspan
         sodipodi:role="line"
         id="tspan4510"
         x="545.71429"
         y="329.50504">4</tspan></text>
    <text
       xml:space="preserve"
       style="font-size:40px;font-style:normal;font-weight:normal;line-height:125%;letter-spacing:0px;word-spacing:0px;fill:#000000;fill-opacity:1;stroke:none;font-family:Sans"
       x="514.28571"
       y="583.79077"
       id="text4512"
       sodipodi:linespacing="125%"><tspan
         sodipodi:role="line"
         id="tspan4514"
         x="514.28571"
         y="583.79077">5</tspan></text>
    <path
       style="fill:none;stroke:#000000;stroke-width:2.5;stroke-linecap:butt;stroke-linejoin:miter;stroke-miterlimit:4;stroke-opacity:1;stroke-dasharray:none;marker-end:url(#Arrow1Lend-5)"
       d="M 162.85714,378.07647 C 178.75713,330.16694 226.43432,314.0346 280,303.79075"
       id="path4516"
       inkscape:connector-curvature="0"
       sodipodi:nodetypes="cc" />
    <path
       style="fill:none;stroke:#000000;stroke-width:2.5;stroke-linecap:butt;stroke-linejoin:miter;stroke-miterlimit:4;stroke-opacity:1;stroke-dasharray:none;marker-end:url(#Arrow1Lend-5)"
       d="m 302.85714,315.21933 c 11.33225,47.3943 34.04955,65.16322 -14.28571,94.28571 -24.24915,16.33671 -79.88201,-4.28995 -111.42857,-17.14286"
       id="path4710"
       inkscape:connector-curvature="0"
       sodipodi:nodetypes="ccc" />
    <path
       style="fill:none;stroke:#000000;stroke-width:2.5;stroke-linecap:butt;stroke-linejoin:miter;stroke-miterlimit:4;stroke-opacity:1;stroke-dasharray:none;marker-end:url(#Arrow1Lend-5)"
       d="m 160,406.6479 c -12.05736,33.92641 -50.65421,52.68738 -14.28571,114.28571 39.93908,33.56958 46.28973,22.35457 65.71428,28.57143"
       id="path4904"
       inkscape:connector-curvature="0"
       sodipodi:nodetypes="ccc" />
    <path
       style="fill:none;stroke:#000000;stroke-width:2.5;stroke-linecap:butt;stroke-linejoin:miter;stroke-miterlimit:4;stroke-opacity:1;stroke-dasharray:none;marker-end:url(#Arrow1Lend-5)"
       d="m 234.28571,526.6479 c 21.61137,-18.78402 22.1886,-45.9817 5.71429,-80 -8.43741,-30.61759 -40.90639,-31.0425 -62.85714,-42.85715"
       id="path5098"
       inkscape:connector-curvature="0"
       sodipodi:nodetypes="ccc" />
    <path
       style="fill:none;stroke:#000000;stroke-width:2.5;stroke-linecap:butt;stroke-linejoin:miter;stroke-miterlimit:4;stroke-opacity:1;stroke-dasharray:none;marker-end:url(#Arrow1Lend-5)"
       d="m 322.85714,300.93361 c 15.09089,38.61045 33.65383,65.06876 34.28572,154.28572 -5.74631,57.11083 -58.46786,67.24642 -100,88.57142"
       id="path5292"
       inkscape:connector-curvature="0"
       sodipodi:nodetypes="ccc" />
    <path
       style="fill:none;stroke:#000000;stroke-width:2.5;stroke-linecap:butt;stroke-linejoin:miter;stroke-miterlimit:4;stroke-opacity:1;stroke-dasharray:none;marker-end:url(#Arrow1Lend-5)"
       d="m 511.42857,395.21933 c -51.4056,18.42036 -59.54814,63.64268 -65.71428,97.14285 l 25.71428,34.28572"
       id="path5486"
       inkscape:connector-curvature="0"
       sodipodi:nodetypes="ccc" />
    <path
       style="fill:none;stroke:#000000;stroke-width:2.5;stroke-linecap:butt;stroke-linejoin:miter;stroke-miterlimit:4;stroke-opacity:1;stroke-dasharray:none;marker-end:url(#Arrow1Lend-5)"
       d="m 500,520.93361 c 37.43232,-11.88421 52.05676,-32.89158 51.42857,-60 l -2.85714,-60"
       id="path5680"
       inkscape:connector-curvature="0"
       sodipodi:nodetypes="ccc" />
  </g>
</svg>
