<?xml version="1.0" encoding="UTF-8" standalone="no"?>
<!-- Created with Inkscape (http://www.inkscape.org/) -->

<svg
   xmlns:dc="http://purl.org/dc/elements/1.1/"
   xmlns:cc="http://creativecommons.org/ns#"
   xmlns:rdf="http://www.w3.org/1999/02/22-rdf-syntax-ns#"
   xmlns:svg="http://www.w3.org/2000/svg"
   xmlns="http://www.w3.org/2000/svg"
   xmlns:sodipodi="http://sodipodi.sourceforge.net/DTD/sodipodi-0.dtd"
   xmlns:inkscape="http://www.inkscape.org/namespaces/inkscape"
   width="1053.6362"
   height="805.86523"
   id="svg2"
   sodipodi:version="0.32"
   inkscape:version="0.48.4 r9939"
   version="1.0"
   sodipodi:docname="Parallelepiped.svg">
  <sodipodi:namedview
     id="base"
     pagecolor="#ffffff"
     bordercolor="#666666"
     borderopacity="1.0"
     gridtolerance="10000"
     guidetolerance="10"
     objecttolerance="10"
     inkscape:pageopacity="0.0"
     inkscape:pageshadow="2"
     inkscape:zoom="0.65930707"
     inkscape:cx="851.4932"
     inkscape:cy="411.73756"
     inkscape:document-units="px"
     inkscape:current-layer="layer1"
     showgrid="true"
     inkscape:grid-points="true"
     inkscape:window-width="1334"
     inkscape:window-height="883"
     inkscape:window-x="59"
     inkscape:window-y="24"
     inkscape:window-maximized="0"
     fit-margin-top="0"
     fit-margin-left="0"
     fit-margin-right="0"
     fit-margin-bottom="0" />
  <defs
     id="defs4" />
  <metadata
     id="metadata7">
    <rdf:RDF>
      <cc:Work
         rdf:about="">
        <dc:format>image/svg+xml</dc:format>
        <dc:type
           rdf:resource="http://purl.org/dc/dcmitype/StillImage" />
      </cc:Work>
    </rdf:RDF>
  </metadata>
  <g
     transform="translate(152.75,-300.07229)"
     id="layer1"
     inkscape:groupmode="layer"
     inkscape:label="Layer 1">
    <g
       transform="matrix(0.83645335,-0.14420108,0.13681756,0.62104893,-37.950509,427.04665)"
       id="g3089">
      <path
         inkscape:connector-curvature="0"
         style="fill:none;stroke:#000000;stroke-width:1.51400495px;stroke-linecap:butt;stroke-linejoin:miter;stroke-opacity:1"
         d="m 100,892.36218 600,0"
         id="path1872"
         sodipodi:nodetypes="cc" />
      <path
         inkscape:connector-curvature="0"
         id="path1874"
         d="m 340,712.36218 600,0"
         style="fill:none;stroke:#000000;stroke-width:1.51400495;stroke-linecap:butt;stroke-linejoin:miter;stroke-miterlimit:4;stroke-opacity:1;stroke-dasharray:18.16806, 18.16806;stroke-dashoffset:0"
         sodipodi:nodetypes="cc" />
      <path
         inkscape:connector-curvature="0"
         style="fill:none;stroke:#000000;stroke-width:1.51400495;stroke-linecap:butt;stroke-linejoin:miter;stroke-miterlimit:4;stroke-opacity:1;stroke-dasharray:18.16806, 18.16806;stroke-dashoffset:0"
         d="m 340,712.36218 -240,180"
         id="path1876"
         sodipodi:nodetypes="cc" />
      <path
         inkscape:connector-curvature="0"
         id="path1878"
         d="m 260,312.36218 600,0"
         style="fill:none;stroke:#000000;stroke-width:1.51400495px;stroke-linecap:butt;stroke-linejoin:miter;stroke-opacity:1"
         sodipodi:nodetypes="cc" />
      <path
         inkscape:connector-curvature="0"
         style="fill:none;stroke:#000000;stroke-width:1.51400495px;stroke-linecap:butt;stroke-linejoin:miter;stroke-opacity:1"
         d="m 260,312.36218 -160,580"
         id="path1882"
         sodipodi:nodetypes="cc" />
      <path
         inkscape:connector-curvature="0"
         sodipodi:nodetypes="cc"
         id="path1884"
         d="m 940,712.36218 -240,180"
         style="fill:none;stroke:#000000;stroke-width:1.51400495px;stroke-linecap:butt;stroke-linejoin:miter;stroke-opacity:1" />
      <path
         inkscape:connector-curvature="0"
         sodipodi:nodetypes="cc"
         id="path1886"
         d="m 500,132.36218 -240,180"
         style="fill:none;stroke:#000000;stroke-width:1.51400495px;stroke-linecap:butt;stroke-linejoin:miter;stroke-opacity:1" />
      <path
         inkscape:connector-curvature="0"
         sodipodi:nodetypes="cc"
         id="path1888"
         d="m 1100,132.36218 -240,180"
         style="fill:none;stroke:#000000;stroke-width:1.51400495px;stroke-linecap:butt;stroke-linejoin:miter;stroke-opacity:1" />
      <path
         inkscape:connector-curvature="0"
         style="fill:none;stroke:#000000;stroke-width:1.51400495px;stroke-linecap:butt;stroke-linejoin:miter;stroke-opacity:1"
         d="m 500,132.36218 600,0"
         id="path1890"
         sodipodi:nodetypes="cc" />
      <path
         inkscape:connector-curvature="0"
         sodipodi:nodetypes="cc"
         id="path1892"
         d="m 860,312.36218 -160,580"
         style="fill:none;stroke:#000000;stroke-width:1.51400495px;stroke-linecap:butt;stroke-linejoin:miter;stroke-opacity:1" />
      <path
         inkscape:connector-curvature="0"
         style="fill:none;stroke:#000000;stroke-width:1.51400495px;stroke-linecap:butt;stroke-linejoin:miter;stroke-opacity:1"
         d="m 1100,132.36218 -160,580"
         id="path1894"
         sodipodi:nodetypes="cc" />
      <path
         inkscape:connector-curvature="0"
         sodipodi:nodetypes="cc"
         id="path1896"
         d="m 500,132.36218 -160,580"
         style="fill:none;stroke:#000000;stroke-width:1.51400495;stroke-linecap:butt;stroke-linejoin:miter;stroke-miterlimit:4;stroke-opacity:1;stroke-dasharray:12.11204, 12.11204;stroke-dashoffset:0" />
    </g>
    <path
       sodipodi:nodetypes="ccc"
       transform="translate(99.243,131.6052)"
       inkscape:connector-curvature="0"
       id="path3103"
       d="m 69.770221,168.46709 -1.516744,665.8506 570.295713,3.03348"
       style="fill:none;stroke:#000000;stroke-width:1px;stroke-linecap:butt;stroke-linejoin:miter;stroke-opacity:1" />
    <path
       inkscape:connector-curvature="0"
       id="path3105"
       d="M 169.01322,965.92288 -152.53649,1105.4633"
       style="fill:none;stroke:#000000;stroke-width:1px;stroke-linecap:butt;stroke-linejoin:miter;stroke-opacity:1" />
    <path
       d="m 351.88459,76.704094 c 0,2.931861 -2.37674,5.308604 -5.3086,5.308604 -2.93186,0 -5.3086,-2.376743 -5.3086,-5.308604 0,-2.931861 2.37674,-5.308604 5.3086,-5.308604 2.93186,0 5.3086,2.376743 5.3086,5.308604 z"
       sodipodi:ry="5.3086038"
       sodipodi:rx="5.3086038"
       sodipodi:cy="76.704094"
       sodipodi:cx="346.57599"
       id="path3107-2"
       style="fill:#000000;fill-opacity:0.97716896;stroke-width:2;stroke-miterlimit:4;stroke-dasharray:none"
       sodipodi:type="arc"
       transform="translate(324.47947,805.79787)" />
    <path
       d="m 351.88459,76.704094 c 0,2.931861 -2.37674,5.308604 -5.3086,5.308604 -2.93186,0 -5.3086,-2.376743 -5.3086,-5.308604 0,-2.931861 2.37674,-5.308604 5.3086,-5.308604 2.93186,0 5.3086,2.376743 5.3086,5.308604 z"
       sodipodi:ry="5.3086038"
       sodipodi:rx="5.3086038"
       sodipodi:cy="76.704094"
       sodipodi:cx="346.57599"
       id="path3107-0"
       style="fill:#000000;fill-opacity:0.97716896;stroke-width:2;stroke-miterlimit:4;stroke-dasharray:none"
       sodipodi:type="arc"
       transform="translate(-122.95999,511.54955)" />
    <path
       d="m 351.88459,76.704094 c 0,2.931861 -2.37674,5.308604 -5.3086,5.308604 -2.93186,0 -5.3086,-2.376743 -5.3086,-5.308604 0,-2.931861 2.37674,-5.308604 5.3086,-5.308604 2.93186,0 5.3086,2.376743 5.3086,5.308604 z"
       sodipodi:ry="5.3086038"
       sodipodi:rx="5.3086038"
       sodipodi:cy="76.704094"
       sodipodi:cx="346.57599"
       id="path3107-5"
       style="fill:#000000;fill-opacity:0.97716896;stroke-width:2;stroke-miterlimit:4;stroke-dasharray:none"
       sodipodi:type="arc"
       transform="translate(1.4130166,743.61137)" />
    <g
       id="g3165"
       transform="matrix(0.72009163,0,0,0.72009163,452.45954,700.08097)">
      <g
         word-spacing="normal"
         letter-spacing="normal"
         font-size-adjust="none"
         font-stretch="normal"
         font-weight="normal"
         font-variant="normal"
         font-style="normal"
         stroke-miterlimit="10.433"
         xml:space="preserve"
         transform="matrix(1.0878771,0,0,-1.0878771,-190.37849,751.1355)"
         id="content"
         style="font-style:normal;font-variant:normal;font-weight:normal;font-stretch:normal;letter-spacing:normal;word-spacing:normal;text-anchor:start;fill:none;stroke:#000000;stroke-linecap:butt;stroke-linejoin:miter;stroke-miterlimit:10.43299961;stroke-opacity:1;stroke-dasharray:none;stroke-dashoffset:0"><path
           id="path3168"
           d="m 472,394.25 0,0.02 0,0.03 0,0.01 0,0.02 0,0.01 -0.01,0.02 0,0.01 -0.01,0.02 -0.01,0.02 -0.01,0.02 -0.01,0.02 -0.02,0.03 -0.01,0.02 -0.02,0.03 -0.02,0.03 -0.03,0.03 -0.02,0.03 -0.03,0.04 -0.02,0.02 -0.01,0.02 -0.02,0.02 -0.02,0.02 -0.02,0.02 -0.02,0.03 -0.02,0.02 -0.02,0.02 -0.02,0.03 -0.03,0.02 -0.02,0.03 -0.03,0.03 -0.03,0.03 -0.02,0.03 -0.03,0.03 -0.03,0.03 -0.03,0.03 -0.03,0.03 -0.04,0.04 -0.03,0.03 -0.04,0.04 -0.03,0.03 -0.04,0.04 -0.04,0.04 c -6.22,6.28 -7.81,15.69 -7.81,23.31 0,8.67 1.89,17.35 8.01,23.56 0.64,0.61 0.64,0.71 0.64,0.86 0,0.35 -0.18,0.49 -0.48,0.49 -0.5,0 -4.98,-3.38 -7.92,-9.7 -2.55,-5.49 -3.14,-11.02 -3.14,-15.21 0,-3.89 0.54,-9.9 3.28,-15.54 2.98,-6.13 7.28,-9.36 7.78,-9.36 0.3,0 0.48,0.14 0.48,0.5 z"
           inkscape:connector-curvature="0"
           style="fill:#000000;stroke-width:0" /><path
           id="path3170"
           d="m 491.48,421.25 0.03,0.13 0.03,0.15 0.04,0.16 0.05,0.18 0.05,0.19 0.06,0.21 0.07,0.22 0.07,0.22 0.08,0.23 0.09,0.24 0.09,0.25 0.11,0.24 0.11,0.25 0.12,0.25 0.13,0.25 0.13,0.25 0.15,0.24 0.16,0.24 0.16,0.23 0.18,0.22 0.19,0.22 0.2,0.2 0.21,0.19 0.22,0.18 0.23,0.16 0.24,0.14 0.13,0.07 0.13,0.06 0.13,0.05 0.14,0.05 0.14,0.05 0.14,0.04 0.15,0.03 0.15,0.03 0.15,0.02 0.15,0.02 0.16,0.01 0.16,0 c 0.25,0 1.44,0 2.49,-0.64 -1.39,-0.25 -2.39,-1.5 -2.39,-2.69 0,-0.79 0.54,-1.75 1.89,-1.75 1.09,0 2.69,0.89 2.69,2.89 0,2.6 -2.94,3.28 -4.63,3.28 -2.89,0 -4.64,-2.64 -5.23,-3.78 -1.25,3.28 -3.94,3.78 -5.38,3.78 -5.19,0 -8.03,-6.42 -8.03,-7.67 0,-0.5 0.5,-0.5 0.61,-0.5 0.39,0 0.55,0.11 0.64,0.55 1.69,5.28 4.98,6.53 6.67,6.53 0.96,0 2.69,-0.44 2.69,-3.33 0,-1.54 -0.84,-4.89 -2.69,-11.86 -0.79,-3.09 -2.53,-5.18 -4.73,-5.18 -0.3,0 -1.44,0 -2.49,0.65 1.25,0.24 2.35,1.28 2.35,2.69 0,1.34 -1.1,1.73 -1.85,1.73 -1.5,0 -2.75,-1.29 -2.75,-2.89 0,-2.28 2.5,-3.28 4.69,-3.28 3.3,0 5.08,3.49 5.24,3.78 0.59,-1.84 2.39,-3.78 5.37,-3.78 5.14,0 7.98,6.42 7.98,7.67 0,0.5 -0.45,0.5 -0.6,0.5 -0.44,0 -0.55,-0.2 -0.65,-0.54 -1.64,-5.33 -5.03,-6.53 -6.62,-6.53 -1.95,0 -2.75,1.59 -2.75,3.29 0,1.1 0.3,2.19 0.86,4.38 z"
           inkscape:connector-curvature="0"
           style="fill:#000000;stroke-width:0" /><path
           id="path3172"
           d="m 514.95,420.92 0,0.04 0,0.04 0,0.05 0,0.04 0,0.03 0,0.04 0,0.04 0,0.03 0,0.04 0,0.03 -0.01,0.03 0,0.03 0,0.03 0,0.03 -0.01,0.03 0,0.02 -0.01,0.03 0,0.02 -0.01,0.03 0,0.02 -0.01,0.04 -0.02,0.04 -0.02,0.03 -0.01,0.03 -0.03,0.03 -0.02,0.03 -0.03,0.02 -0.03,0.02 -0.03,0.02 -0.04,0.01 -0.04,0.01 -0.04,0.02 -0.03,0 -0.02,0 -0.03,0.01 -0.02,0 -0.03,0.01 -0.03,0 -0.03,0 -0.03,0 -0.03,0 -0.04,0.01 -0.03,0 -0.04,0 -0.03,0 -0.04,0 -0.04,0 -0.04,0 -0.04,0 -0.04,0 -0.05,0 -0.04,0 c -2.24,-2.2 -5.39,-2.23 -6.83,-2.23 v -1.25 c 0.84,0 3.14,0 5.04,0.97 v -17.77 c 0,-1.16 0,-1.61 -3.48,-1.61 h -1.31 v -1.25 c 0.62,0.03 4.9,0.14 6.2,0.14 1.08,0 5.47,-0.11 6.24,-0.14 v 1.25 h -1.33 c -3.49,0 -3.49,0.45 -3.49,1.61 z"
           inkscape:connector-curvature="0"
           style="fill:#000000;stroke-width:0" /><path
           id="path3174"
           d="m 535.83,406.25 -0.01,0.3 -0.01,0.3 -0.01,0.29 -0.03,0.28 -0.03,0.27 -0.04,0.26 -0.04,0.26 -0.06,0.24 -0.05,0.24 -0.07,0.23 -0.07,0.22 -0.08,0.21 -0.08,0.2 -0.09,0.19 -0.09,0.19 -0.1,0.17 -0.11,0.16 -0.11,0.16 -0.12,0.14 -0.12,0.13 -0.13,0.13 -0.13,0.11 -0.14,0.1 -0.15,0.1 -0.15,0.08 -0.15,0.07 -0.16,0.06 -0.16,0.05 -0.17,0.04 -0.17,0.03 -0.18,0.01 -0.18,0.01 c -1.64,0 -2.64,-1.25 -2.64,-2.64 0,-1.34 1,-2.64 2.64,-2.64 0.59,0 1.25,0.2 1.75,0.64 0.14,0.11 0.2,0.16 0.25,0.16 0.05,0 0.09,-0.05 0.09,-0.75 0,-3.69 -1.73,-6.68 -3.39,-8.32 -0.54,-0.54 -0.54,-0.65 -0.54,-0.79 0,-0.36 0.25,-0.55 0.5,-0.55 0.54,0 4.53,3.83 4.53,9.66 z"
           inkscape:connector-curvature="0"
           style="fill:#000000;stroke-width:0" /><path
           id="path3176"
           d="m 572.02,425.18 0,0.04 0.01,0.03 0.02,0.06 0.01,0.05 0.02,0.06 0.01,0.05 0.01,0.04 0.01,0.05 0.01,0.04 0.01,0.04 0.01,0.04 0.01,0.04 0.01,0.04 0,0.03 0.01,0.03 0,0.03 0.01,0.03 0,0.03 0.01,0.03 0,0.05 0.01,0.06 0,0.05 0,0.05 0,0.05 0,0.03 0,0.03 0,0.03 0,0.03 c 0,0.91 -0.68,1.35 -1.43,1.35 -0.5,0 -1.3,-0.3 -1.75,-1.05 -0.1,-0.25 -0.5,-1.78 -0.69,-2.69 -0.36,-1.29 -0.71,-2.64 -1,-3.98 l -2.25,-8.97 c -0.19,-0.75 -2.33,-4.23 -5.63,-4.23 -2.53,0 -3.09,2.18 -3.09,4.03 0,2.29 0.86,5.39 2.55,9.76 0.79,2.05 1,2.6 1,3.6 0,2.23 -1.6,4.07 -4.1,4.07 -4.73,0 -6.58,-7.21 -6.58,-7.67 0,-0.5 0.5,-0.5 0.61,-0.5 0.5,0 0.55,0.11 0.8,0.91 1.34,4.69 3.33,6.17 5.03,6.17 0.39,0 1.25,0 1.25,-1.59 0,-1.25 -0.5,-2.53 -0.86,-3.49 -1.98,-5.28 -2.89,-8.12 -2.89,-10.47 0,-4.42 3.14,-5.92 6.08,-5.92 1.95,0 3.64,0.85 5.03,2.24 -0.64,-2.58 -1.23,-5.03 -3.23,-7.68 -1.3,-1.68 -3.19,-3.14 -5.49,-3.14 -0.68,0 -2.94,0.16 -3.78,2.1 0.8,0 1.45,0 2.14,0.61 0.5,0.43 1,1.09 1,2.03 0,1.55 -1.34,1.75 -1.84,1.75 -1.14,0 -2.8,-0.8 -2.8,-3.24 0,-2.5 2.2,-4.34 5.28,-4.34 5.14,0 10.27,4.55 11.67,10.17 z"
           inkscape:connector-curvature="0"
           style="fill:#000000;stroke-width:0" /><path
           id="path3178"
           d="m 583.95,420.92 0,0.04 0,0.04 0,0.05 0,0.04 0,0.03 0,0.04 0,0.04 0,0.03 0,0.04 0,0.03 -0.01,0.03 0,0.03 0,0.03 0,0.03 -0.01,0.03 0,0.02 -0.01,0.03 0,0.02 -0.01,0.03 0,0.02 -0.01,0.04 -0.02,0.04 -0.02,0.03 -0.01,0.03 -0.03,0.03 -0.02,0.03 -0.03,0.02 -0.03,0.02 -0.03,0.02 -0.04,0.01 -0.04,0.01 -0.04,0.02 -0.03,0 -0.02,0 -0.03,0.01 -0.02,0 -0.03,0.01 -0.03,0 -0.03,0 -0.03,0 -0.03,0 -0.04,0.01 -0.03,0 -0.04,0 -0.03,0 -0.04,0 -0.04,0 -0.04,0 -0.04,0 -0.04,0 -0.05,0 -0.04,0 c -2.24,-2.2 -5.39,-2.23 -6.83,-2.23 v -1.25 c 0.84,0 3.14,0 5.04,0.97 v -17.77 c 0,-1.16 0,-1.61 -3.48,-1.61 h -1.31 v -1.25 c 0.62,0.03 4.9,0.14 6.2,0.14 1.08,0 5.47,-0.11 6.24,-0.14 v 1.25 h -1.33 c -3.49,0 -3.49,0.45 -3.49,1.61 z"
           inkscape:connector-curvature="0"
           style="fill:#000000;stroke-width:0" /><path
           id="path3180"
           d="m 604.71,406.25 0,0.3 -0.01,0.3 -0.02,0.29 -0.03,0.28 -0.03,0.27 -0.04,0.26 -0.04,0.26 -0.05,0.24 -0.06,0.24 -0.06,0.23 -0.08,0.22 -0.07,0.21 -0.09,0.2 -0.08,0.19 -0.1,0.19 -0.1,0.17 -0.11,0.16 -0.11,0.16 -0.12,0.14 -0.12,0.13 -0.13,0.13 -0.13,0.11 -0.14,0.1 -0.14,0.1 -0.15,0.08 -0.16,0.07 -0.16,0.06 -0.16,0.05 -0.17,0.04 -0.17,0.03 -0.18,0.01 -0.18,0.01 c -1.64,0 -2.64,-1.25 -2.64,-2.64 0,-1.34 1,-2.64 2.64,-2.64 0.6,0 1.25,0.2 1.75,0.64 0.14,0.11 0.21,0.16 0.25,0.16 0.05,0 0.1,-0.05 0.1,-0.75 0,-3.69 -1.74,-6.68 -3.39,-8.32 -0.55,-0.54 -0.55,-0.65 -0.55,-0.79 0,-0.36 0.25,-0.55 0.5,-0.55 0.55,0 4.53,3.83 4.53,9.66 z"
           inkscape:connector-curvature="0"
           style="fill:#000000;stroke-width:0" /><path
           id="path3182"
           d="m 623.3,410.34 0.25,0.27 0.24,0.25 0.24,0.25 0.22,0.24 0.23,0.23 0.21,0.22 0.21,0.22 0.21,0.21 0.2,0.2 0.2,0.19 0.19,0.19 0.19,0.19 0.18,0.17 0.18,0.18 0.35,0.33 0.34,0.32 0.34,0.3 0.33,0.29 0.32,0.29 0.65,0.56 0.32,0.29 0.34,0.28 c 0,0.05 3.08,2.69 4.87,4.49 4.74,4.64 5.83,7.03 5.83,7.21 0,0.5 -0.45,0.5 -0.54,0.5 -0.35,0 -0.5,-0.09 -0.75,-0.54 -1.49,-2.39 -2.54,-3.19 -3.74,-3.19 -1.2,0 -1.8,0.75 -2.55,1.59 -0.93,1.16 -1.78,2.14 -3.43,2.14 -3.74,0 -6.02,-4.62 -6.02,-5.67 0,-0.25 0.14,-0.54 0.59,-0.54 0.46,0 0.55,0.25 0.65,0.54 0.95,2.3 3.84,2.35 4.23,2.35 1.05,0 2,-0.36 3.14,-0.75 2,-0.75 2.55,-0.75 3.84,-0.75 -1.79,-2.14 -5.98,-5.74 -6.92,-6.53 l -4.48,-4.18 c -3.39,-3.34 -5.14,-6.18 -5.14,-6.53 0,-0.5 0.5,-0.5 0.59,-0.5 0.41,0 0.5,0.1 0.8,0.64 1.15,1.75 2.64,3.1 4.23,3.1 1.16,0 1.66,-0.46 2.89,-1.89 0.86,-1.05 1.75,-1.85 3.19,-1.85 4.94,0 7.83,6.33 7.83,7.67 0,0.25 -0.2,0.5 -0.6,0.5 -0.45,0 -0.54,-0.29 -0.7,-0.65 -1.14,-3.24 -4.33,-4.17 -5.98,-4.17 -0.99,0 -1.89,0.29 -2.94,0.64 -1.69,0.64 -2.44,0.84 -3.48,0.84 -0.1,0 -0.9,0 -1.35,-0.14 z"
           inkscape:connector-curvature="0"
           style="fill:#000000;stroke-width:0" /><path
           id="path3184"
           d="m 651.51,420.92 0,0.04 0,0.04 0,0.05 0,0.04 0,0.03 0,0.04 0,0.04 0,0.03 0,0.04 -0.01,0.03 0,0.03 0,0.03 0,0.03 -0.01,0.03 0,0.03 0,0.02 -0.01,0.03 0,0.02 -0.01,0.03 0,0.02 -0.02,0.04 -0.01,0.04 -0.02,0.03 -0.02,0.03 -0.02,0.03 -0.02,0.03 -0.03,0.02 -0.03,0.02 -0.03,0.02 -0.04,0.01 -0.04,0.01 -0.05,0.02 -0.02,0 -0.02,0 -0.03,0.01 -0.03,0 -0.02,0.01 -0.03,0 -0.03,0 -0.03,0 -0.03,0 -0.04,0.01 -0.03,0 -0.04,0 -0.03,0 -0.04,0 -0.04,0 -0.04,0 -0.04,0 -0.05,0 -0.04,0 -0.04,0 c -2.24,-2.2 -5.4,-2.23 -6.83,-2.23 v -1.25 c 0.84,0 3.14,0 5.04,0.97 v -17.77 c 0,-1.16 0,-1.61 -3.48,-1.61 h -1.31 v -1.25 c 0.62,0.03 4.9,0.14 6.2,0.14 1.08,0 5.47,-0.11 6.23,-0.14 v 1.25 H 655 c -3.49,0 -3.49,0.45 -3.49,1.61 z"
           inkscape:connector-curvature="0"
           style="fill:#000000;stroke-width:0" /><path
           id="path3186"
           d="m 676.67,418.65 0,0.37 0,0.39 -0.01,0.39 -0.02,0.41 -0.04,0.84 -0.06,0.88 -0.08,0.92 -0.11,0.95 -0.13,0.97 -0.16,1.01 -0.2,1.02 -0.23,1.03 -0.27,1.05 -0.3,1.06 -0.35,1.07 -0.39,1.07 -0.22,0.53 -0.22,0.53 -0.24,0.53 -0.25,0.53 c -2.98,6.12 -7.27,9.36 -7.77,9.36 -0.29,0 -0.5,-0.19 -0.5,-0.49 0,-0.15 0,-0.25 0.94,-1.15 4.89,-4.92 7.74,-12.85 7.74,-23.27 0,-8.51 -1.85,-17.28 -8.03,-23.56 -0.65,-0.59 -0.65,-0.7 -0.65,-0.84 0,-0.3 0.21,-0.5 0.5,-0.5 0.5,0 4.97,3.39 7.93,9.71 2.53,5.47 3.12,11 3.12,15.19 z"
           inkscape:connector-curvature="0"
           style="fill:#000000;stroke-width:0" /></g>    </g>
    <g
       id="g3258"
       transform="matrix(0.72009163,0,0,0.72009163,12.603804,404.31591)">
      <g
         id="g3260"
         transform="matrix(1.0878771,0,0,-1.0878771,-190.37849,751.1355)"
         xml:space="preserve"
         stroke-miterlimit="10.433"
         font-style="normal"
         font-variant="normal"
         font-weight="normal"
         font-stretch="normal"
         font-size-adjust="none"
         letter-spacing="normal"
         word-spacing="normal"
         style="font-style:normal;font-variant:normal;font-weight:normal;font-stretch:normal;letter-spacing:normal;word-spacing:normal;text-anchor:start;fill:none;stroke:#000000;stroke-linecap:butt;stroke-linejoin:miter;stroke-miterlimit:10.43299961;stroke-opacity:1;stroke-dasharray:none;stroke-dashoffset:0"><path
           d="m 472,394.25 0,0.02 0,0.03 0,0.01 0,0.02 0,0.01 -0.01,0.02 0,0.01 -0.01,0.02 -0.01,0.02 -0.01,0.02 -0.01,0.02 -0.02,0.03 -0.01,0.02 -0.02,0.03 -0.02,0.03 -0.03,0.03 -0.02,0.03 -0.03,0.04 -0.02,0.02 -0.01,0.02 -0.02,0.02 -0.02,0.02 -0.02,0.02 -0.02,0.03 -0.02,0.02 -0.02,0.02 -0.02,0.03 -0.03,0.02 -0.02,0.03 -0.03,0.03 -0.03,0.03 -0.02,0.03 -0.03,0.03 -0.03,0.03 -0.03,0.03 -0.03,0.03 -0.04,0.04 -0.03,0.03 -0.04,0.04 -0.03,0.03 -0.04,0.04 -0.04,0.04 c -6.22,6.28 -7.81,15.69 -7.81,23.31 0,8.67 1.89,17.35 8.01,23.56 0.64,0.61 0.64,0.71 0.64,0.86 0,0.35 -0.18,0.49 -0.48,0.49 -0.5,0 -4.98,-3.38 -7.92,-9.7 -2.55,-5.49 -3.14,-11.02 -3.14,-15.21 0,-3.89 0.54,-9.9 3.28,-15.54 2.98,-6.13 7.28,-9.36 7.78,-9.36 0.3,0 0.48,0.14 0.48,0.5 z"
           id="path3262"
           inkscape:connector-curvature="0"
           style="fill:#000000;stroke-width:0" /><path
           d="m 491.48,421.25 0.03,0.13 0.03,0.15 0.04,0.16 0.05,0.18 0.05,0.19 0.06,0.21 0.07,0.22 0.07,0.22 0.08,0.23 0.09,0.24 0.09,0.25 0.11,0.24 0.11,0.25 0.12,0.25 0.13,0.25 0.13,0.25 0.15,0.24 0.16,0.24 0.16,0.23 0.18,0.22 0.19,0.22 0.2,0.2 0.21,0.19 0.22,0.18 0.23,0.16 0.24,0.14 0.13,0.07 0.13,0.06 0.13,0.05 0.14,0.05 0.14,0.05 0.14,0.04 0.15,0.03 0.15,0.03 0.15,0.02 0.15,0.02 0.16,0.01 0.16,0 c 0.25,0 1.44,0 2.49,-0.64 -1.39,-0.25 -2.39,-1.5 -2.39,-2.69 0,-0.79 0.54,-1.75 1.89,-1.75 1.09,0 2.69,0.89 2.69,2.89 0,2.6 -2.94,3.28 -4.63,3.28 -2.89,0 -4.64,-2.64 -5.23,-3.78 -1.25,3.28 -3.94,3.78 -5.38,3.78 -5.19,0 -8.03,-6.42 -8.03,-7.67 0,-0.5 0.5,-0.5 0.61,-0.5 0.39,0 0.55,0.11 0.64,0.55 1.69,5.28 4.98,6.53 6.67,6.53 0.96,0 2.69,-0.44 2.69,-3.33 0,-1.54 -0.84,-4.89 -2.69,-11.86 -0.79,-3.09 -2.53,-5.18 -4.73,-5.18 -0.3,0 -1.44,0 -2.49,0.65 1.25,0.24 2.35,1.28 2.35,2.69 0,1.34 -1.1,1.73 -1.85,1.73 -1.5,0 -2.75,-1.29 -2.75,-2.89 0,-2.28 2.5,-3.28 4.69,-3.28 3.3,0 5.08,3.49 5.24,3.78 0.59,-1.84 2.39,-3.78 5.37,-3.78 5.14,0 7.98,6.42 7.98,7.67 0,0.5 -0.45,0.5 -0.6,0.5 -0.44,0 -0.55,-0.2 -0.65,-0.54 -1.64,-5.33 -5.03,-6.53 -6.62,-6.53 -1.95,0 -2.75,1.59 -2.75,3.29 0,1.1 0.3,2.19 0.86,4.38 z"
           id="path3264"
           inkscape:connector-curvature="0"
           style="fill:#000000;stroke-width:0" /><path
           d="m 520.88,405.11 h -1.19 c -0.1,-0.77 -0.46,-2.83 -0.91,-3.18 -0.26,-0.2 -2.95,-0.2 -3.44,-0.2 h -6.42 c 3.66,3.23 4.88,4.2 6.97,5.84 2.58,2.07 4.99,4.22 4.99,7.54 0,4.21 -3.69,6.79 -8.16,6.79 -4.31,0 -7.25,-3.03 -7.25,-6.23 0,-1.78 1.5,-1.96 1.86,-1.96 0.83,0 1.84,0.6 1.84,1.85 0,0.62 -0.25,1.84 -2.06,1.84 1.08,2.47 3.45,3.24 5.09,3.24 3.49,0 5.3,-2.71 5.3,-5.53 0,-3.04 -2.16,-5.44 -3.28,-6.69 l -8.39,-8.3 c -0.36,-0.31 -0.36,-0.39 -0.36,-1.36 h 14.36 z"
           id="path3266"
           inkscape:connector-curvature="0"
           style="fill:#000000;stroke-width:0" /><path
           d="m 535.83,406.25 -0.01,0.3 -0.01,0.3 -0.01,0.29 -0.03,0.28 -0.03,0.27 -0.04,0.26 -0.04,0.26 -0.06,0.24 -0.05,0.24 -0.07,0.23 -0.07,0.22 -0.08,0.21 -0.08,0.2 -0.09,0.19 -0.09,0.19 -0.1,0.17 -0.11,0.16 -0.11,0.16 -0.12,0.14 -0.12,0.13 -0.13,0.13 -0.13,0.11 -0.14,0.1 -0.15,0.1 -0.15,0.08 -0.15,0.07 -0.16,0.06 -0.16,0.05 -0.17,0.04 -0.17,0.03 -0.18,0.01 -0.18,0.01 c -1.64,0 -2.64,-1.25 -2.64,-2.64 0,-1.34 1,-2.64 2.64,-2.64 0.59,0 1.25,0.2 1.75,0.64 0.14,0.11 0.2,0.16 0.25,0.16 0.05,0 0.09,-0.05 0.09,-0.75 0,-3.69 -1.73,-6.68 -3.39,-8.32 -0.54,-0.54 -0.54,-0.65 -0.54,-0.79 0,-0.36 0.25,-0.55 0.5,-0.55 0.54,0 4.53,3.83 4.53,9.66 z"
           id="path3268"
           inkscape:connector-curvature="0"
           style="fill:#000000;stroke-width:0" /><path
           d="m 572.02,425.18 0,0.04 0.01,0.03 0.02,0.06 0.01,0.05 0.02,0.06 0.01,0.05 0.01,0.04 0.01,0.05 0.01,0.04 0.01,0.04 0.01,0.04 0.01,0.04 0.01,0.04 0,0.03 0.01,0.03 0,0.03 0.01,0.03 0,0.03 0.01,0.03 0,0.05 0.01,0.06 0,0.05 0,0.05 0,0.05 0,0.03 0,0.03 0,0.03 0,0.03 c 0,0.91 -0.68,1.35 -1.43,1.35 -0.5,0 -1.3,-0.3 -1.75,-1.05 -0.1,-0.25 -0.5,-1.78 -0.69,-2.69 -0.36,-1.29 -0.71,-2.64 -1,-3.98 l -2.25,-8.97 c -0.19,-0.75 -2.33,-4.23 -5.63,-4.23 -2.53,0 -3.09,2.18 -3.09,4.03 0,2.29 0.86,5.39 2.55,9.76 0.79,2.05 1,2.6 1,3.6 0,2.23 -1.6,4.07 -4.1,4.07 -4.73,0 -6.58,-7.21 -6.58,-7.67 0,-0.5 0.5,-0.5 0.61,-0.5 0.5,0 0.55,0.11 0.8,0.91 1.34,4.69 3.33,6.17 5.03,6.17 0.39,0 1.25,0 1.25,-1.59 0,-1.25 -0.5,-2.53 -0.86,-3.49 -1.98,-5.28 -2.89,-8.12 -2.89,-10.47 0,-4.42 3.14,-5.92 6.08,-5.92 1.95,0 3.64,0.85 5.03,2.24 -0.64,-2.58 -1.23,-5.03 -3.23,-7.68 -1.3,-1.68 -3.19,-3.14 -5.49,-3.14 -0.68,0 -2.94,0.16 -3.78,2.1 0.8,0 1.45,0 2.14,0.61 0.5,0.43 1,1.09 1,2.03 0,1.55 -1.34,1.75 -1.84,1.75 -1.14,0 -2.8,-0.8 -2.8,-3.24 0,-2.5 2.2,-4.34 5.28,-4.34 5.14,0 10.27,4.55 11.67,10.17 z"
           id="path3270"
           inkscape:connector-curvature="0"
           style="fill:#000000;stroke-width:0" /><path
           d="m 589.88,405.11 h -1.19 c -0.1,-0.77 -0.46,-2.83 -0.91,-3.18 -0.26,-0.2 -2.95,-0.2 -3.44,-0.2 h -6.42 c 3.66,3.23 4.88,4.2 6.97,5.84 2.58,2.07 4.99,4.22 4.99,7.54 0,4.21 -3.69,6.79 -8.16,6.79 -4.31,0 -7.25,-3.03 -7.25,-6.23 0,-1.78 1.5,-1.96 1.86,-1.96 0.83,0 1.84,0.6 1.84,1.85 0,0.62 -0.25,1.84 -2.06,1.84 1.08,2.47 3.45,3.24 5.09,3.24 3.49,0 5.3,-2.71 5.3,-5.53 0,-3.04 -2.16,-5.44 -3.28,-6.69 l -8.39,-8.3 c -0.36,-0.31 -0.36,-0.39 -0.36,-1.36 h 14.36 z"
           id="path3272"
           inkscape:connector-curvature="0"
           style="fill:#000000;stroke-width:0" /><path
           d="m 604.71,406.25 0,0.3 -0.01,0.3 -0.02,0.29 -0.03,0.28 -0.03,0.27 -0.04,0.26 -0.04,0.26 -0.05,0.24 -0.06,0.24 -0.06,0.23 -0.08,0.22 -0.07,0.21 -0.09,0.2 -0.08,0.19 -0.1,0.19 -0.1,0.17 -0.11,0.16 -0.11,0.16 -0.12,0.14 -0.12,0.13 -0.13,0.13 -0.13,0.11 -0.14,0.1 -0.14,0.1 -0.15,0.08 -0.16,0.07 -0.16,0.06 -0.16,0.05 -0.17,0.04 -0.17,0.03 -0.18,0.01 -0.18,0.01 c -1.64,0 -2.64,-1.25 -2.64,-2.64 0,-1.34 1,-2.64 2.64,-2.64 0.6,0 1.25,0.2 1.75,0.64 0.14,0.11 0.21,0.16 0.25,0.16 0.05,0 0.1,-0.05 0.1,-0.75 0,-3.69 -1.74,-6.68 -3.39,-8.32 -0.55,-0.54 -0.55,-0.65 -0.55,-0.79 0,-0.36 0.25,-0.55 0.5,-0.55 0.55,0 4.53,3.83 4.53,9.66 z"
           id="path3274"
           inkscape:connector-curvature="0"
           style="fill:#000000;stroke-width:0" /><path
           d="m 623.3,410.34 0.25,0.27 0.24,0.25 0.24,0.25 0.22,0.24 0.23,0.23 0.21,0.22 0.21,0.22 0.21,0.21 0.2,0.2 0.2,0.19 0.19,0.19 0.19,0.19 0.18,0.17 0.18,0.18 0.35,0.33 0.34,0.32 0.34,0.3 0.33,0.29 0.32,0.29 0.65,0.56 0.32,0.29 0.34,0.28 c 0,0.05 3.08,2.69 4.87,4.49 4.74,4.64 5.83,7.03 5.83,7.21 0,0.5 -0.45,0.5 -0.54,0.5 -0.35,0 -0.5,-0.09 -0.75,-0.54 -1.49,-2.39 -2.54,-3.19 -3.74,-3.19 -1.2,0 -1.8,0.75 -2.55,1.59 -0.93,1.16 -1.78,2.14 -3.43,2.14 -3.74,0 -6.02,-4.62 -6.02,-5.67 0,-0.25 0.14,-0.54 0.59,-0.54 0.46,0 0.55,0.25 0.65,0.54 0.95,2.3 3.84,2.35 4.23,2.35 1.05,0 2,-0.36 3.14,-0.75 2,-0.75 2.55,-0.75 3.84,-0.75 -1.79,-2.14 -5.98,-5.74 -6.92,-6.53 l -4.48,-4.18 c -3.39,-3.34 -5.14,-6.18 -5.14,-6.53 0,-0.5 0.5,-0.5 0.59,-0.5 0.41,0 0.5,0.1 0.8,0.64 1.15,1.75 2.64,3.1 4.23,3.1 1.16,0 1.66,-0.46 2.89,-1.89 0.86,-1.05 1.75,-1.85 3.19,-1.85 4.94,0 7.83,6.33 7.83,7.67 0,0.25 -0.2,0.5 -0.6,0.5 -0.45,0 -0.54,-0.29 -0.7,-0.65 -1.14,-3.24 -4.33,-4.17 -5.98,-4.17 -0.99,0 -1.89,0.29 -2.94,0.64 -1.69,0.64 -2.44,0.84 -3.48,0.84 -0.1,0 -0.9,0 -1.35,-0.14 z"
           id="path3276"
           inkscape:connector-curvature="0"
           style="fill:#000000;stroke-width:0" /><path
           d="m 657.43,405.11 h -1.18 c -0.1,-0.77 -0.46,-2.83 -0.91,-3.18 -0.27,-0.2 -2.95,-0.2 -3.44,-0.2 h -6.42 c 3.66,3.23 4.87,4.2 6.97,5.84 2.58,2.07 4.98,4.22 4.98,7.54 0,4.21 -3.68,6.79 -8.15,6.79 -4.31,0 -7.25,-3.03 -7.25,-6.23 0,-1.78 1.5,-1.96 1.86,-1.96 0.83,0 1.84,0.6 1.84,1.85 0,0.62 -0.25,1.84 -2.06,1.84 1.08,2.47 3.45,3.24 5.09,3.24 3.49,0 5.3,-2.71 5.3,-5.53 0,-3.04 -2.16,-5.44 -3.28,-6.69 l -8.39,-8.3 c -0.36,-0.31 -0.36,-0.39 -0.36,-1.36 h 14.36 z"
           id="path3278"
           inkscape:connector-curvature="0"
           style="fill:#000000;stroke-width:0" /><path
           d="m 676.67,418.65 0,0.37 0,0.39 -0.01,0.39 -0.02,0.41 -0.04,0.84 -0.06,0.88 -0.08,0.92 -0.11,0.95 -0.13,0.97 -0.16,1.01 -0.2,1.02 -0.23,1.03 -0.27,1.05 -0.3,1.06 -0.35,1.07 -0.39,1.07 -0.22,0.53 -0.22,0.53 -0.24,0.53 -0.25,0.53 c -2.98,6.12 -7.27,9.36 -7.77,9.36 -0.29,0 -0.5,-0.19 -0.5,-0.49 0,-0.15 0,-0.25 0.94,-1.15 4.89,-4.92 7.74,-12.85 7.74,-23.27 0,-8.51 -1.85,-17.28 -8.03,-23.56 -0.65,-0.59 -0.65,-0.7 -0.65,-0.84 0,-0.3 0.21,-0.5 0.5,-0.5 0.5,0 4.97,3.39 7.93,9.71 2.53,5.47 3.12,11 3.12,15.19 z"
           id="path3280"
           inkscape:connector-curvature="0"
           style="fill:#000000;stroke-width:0" /></g>    </g>
    <g
       id="g3376"
       transform="matrix(0.72009163,0,0,0.72009163,129.39308,630.31075)">
      <g
         word-spacing="normal"
         letter-spacing="normal"
         font-size-adjust="none"
         font-stretch="normal"
         font-weight="normal"
         font-variant="normal"
         font-style="normal"
         stroke-miterlimit="10.433"
         xml:space="preserve"
         transform="matrix(1.0878771,0,0,-1.0878771,-190.37849,751.1355)"
         id="g3378"
         style="font-style:normal;font-variant:normal;font-weight:normal;font-stretch:normal;letter-spacing:normal;word-spacing:normal;text-anchor:start;fill:none;stroke:#000000;stroke-linecap:butt;stroke-linejoin:miter;stroke-miterlimit:10.43299961;stroke-opacity:1;stroke-dasharray:none;stroke-dashoffset:0"><path
           id="path3380"
           d="m 472,394.25 0,0.02 0,0.03 0,0.01 0,0.02 0,0.01 -0.01,0.02 0,0.01 -0.01,0.02 -0.01,0.02 -0.01,0.02 -0.01,0.02 -0.02,0.03 -0.01,0.02 -0.02,0.03 -0.02,0.03 -0.03,0.03 -0.02,0.03 -0.03,0.04 -0.02,0.02 -0.01,0.02 -0.02,0.02 -0.02,0.02 -0.02,0.02 -0.02,0.03 -0.02,0.02 -0.02,0.02 -0.02,0.03 -0.03,0.02 -0.02,0.03 -0.03,0.03 -0.03,0.03 -0.02,0.03 -0.03,0.03 -0.03,0.03 -0.03,0.03 -0.03,0.03 -0.04,0.04 -0.03,0.03 -0.04,0.04 -0.03,0.03 -0.04,0.04 -0.04,0.04 c -6.22,6.28 -7.81,15.69 -7.81,23.31 0,8.67 1.89,17.35 8.01,23.56 0.64,0.61 0.64,0.71 0.64,0.86 0,0.35 -0.18,0.49 -0.48,0.49 -0.5,0 -4.98,-3.38 -7.92,-9.7 -2.55,-5.49 -3.14,-11.02 -3.14,-15.21 0,-3.89 0.54,-9.9 3.28,-15.54 2.98,-6.13 7.28,-9.36 7.78,-9.36 0.3,0 0.48,0.14 0.48,0.5 z"
           inkscape:connector-curvature="0"
           style="fill:#000000;stroke-width:0" /><path
           id="path3382"
           d="m 491.48,421.25 0.03,0.13 0.03,0.15 0.04,0.16 0.05,0.18 0.05,0.19 0.06,0.21 0.07,0.22 0.07,0.22 0.08,0.23 0.09,0.24 0.09,0.25 0.11,0.24 0.11,0.25 0.12,0.25 0.13,0.25 0.13,0.25 0.15,0.24 0.16,0.24 0.16,0.23 0.18,0.22 0.19,0.22 0.2,0.2 0.21,0.19 0.22,0.18 0.23,0.16 0.24,0.14 0.13,0.07 0.13,0.06 0.13,0.05 0.14,0.05 0.14,0.05 0.14,0.04 0.15,0.03 0.15,0.03 0.15,0.02 0.15,0.02 0.16,0.01 0.16,0 c 0.25,0 1.44,0 2.49,-0.64 -1.39,-0.25 -2.39,-1.5 -2.39,-2.69 0,-0.79 0.54,-1.75 1.89,-1.75 1.09,0 2.69,0.89 2.69,2.89 0,2.6 -2.94,3.28 -4.63,3.28 -2.89,0 -4.64,-2.64 -5.23,-3.78 -1.25,3.28 -3.94,3.78 -5.38,3.78 -5.19,0 -8.03,-6.42 -8.03,-7.67 0,-0.5 0.5,-0.5 0.61,-0.5 0.39,0 0.55,0.11 0.64,0.55 1.69,5.28 4.98,6.53 6.67,6.53 0.96,0 2.69,-0.44 2.69,-3.33 0,-1.54 -0.84,-4.89 -2.69,-11.86 -0.79,-3.09 -2.53,-5.18 -4.73,-5.18 -0.3,0 -1.44,0 -2.49,0.65 1.25,0.24 2.35,1.28 2.35,2.69 0,1.34 -1.1,1.73 -1.85,1.73 -1.5,0 -2.75,-1.29 -2.75,-2.89 0,-2.28 2.5,-3.28 4.69,-3.28 3.3,0 5.08,3.49 5.24,3.78 0.59,-1.84 2.39,-3.78 5.37,-3.78 5.14,0 7.98,6.42 7.98,7.67 0,0.5 -0.45,0.5 -0.6,0.5 -0.44,0 -0.55,-0.2 -0.65,-0.54 -1.64,-5.33 -5.03,-6.53 -6.62,-6.53 -1.95,0 -2.75,1.59 -2.75,3.29 0,1.1 0.3,2.19 0.86,4.38 z"
           inkscape:connector-curvature="0"
           style="fill:#000000;stroke-width:0" /><path
           id="path3384"
           d="m 512.8,410.4 0.25,0 0.25,-0.02 0.24,-0.03 0.24,-0.04 0.23,-0.05 0.23,-0.06 0.22,-0.07 0.21,-0.08 0.21,-0.1 0.21,-0.1 0.19,-0.12 0.19,-0.12 0.18,-0.14 0.18,-0.15 0.16,-0.16 0.16,-0.17 0.15,-0.18 0.15,-0.19 0.13,-0.2 0.13,-0.22 0.11,-0.22 0.11,-0.24 0.1,-0.24 0.09,-0.26 0.08,-0.27 0.07,-0.28 0.06,-0.29 0.05,-0.3 0.04,-0.31 0.03,-0.32 0.01,-0.33 0.01,-0.35 c 0,-4.33 -2.52,-5.61 -4.53,-5.61 -1.39,0 -4.47,0.38 -5.92,2.44 1.62,0.06 2.01,1.22 2.01,1.95 0,1.11 -0.84,1.91 -1.92,1.91 -0.97,0 -1.95,-0.59 -1.95,-2.02 0,-3.28 3.62,-5.4 7.84,-5.4 4.84,0 8.19,3.25 8.19,6.73 0,2.72 -2.22,5.44 -6.07,6.24 3.66,1.33 4.99,3.93 4.99,6.06 0,2.75 -3.17,4.81 -7.03,4.81 -3.88,0 -6.83,-1.89 -6.83,-4.67 0,-1.19 0.77,-1.84 1.81,-1.84 1.08,0 1.77,0.79 1.77,1.76 0,1.02 -0.69,1.75 -1.77,1.81 1.22,1.55 3.61,1.93 4.91,1.93 1.56,0 3.76,-0.77 3.76,-3.8 0,-1.47 -0.48,-3.06 -1.39,-4.14 -1.15,-1.33 -2.12,-1.41 -3.87,-1.5 -0.88,-0.08 -0.94,-0.08 -1.11,-0.11 -0.08,0 -0.36,-0.06 -0.36,-0.45 0,-0.49 0.31,-0.49 0.91,-0.49 z"
           inkscape:connector-curvature="0"
           style="fill:#000000;stroke-width:0" /><path
           id="path3386"
           d="m 535.83,406.25 -0.01,0.3 -0.01,0.3 -0.01,0.29 -0.03,0.28 -0.03,0.27 -0.04,0.26 -0.04,0.26 -0.06,0.24 -0.05,0.24 -0.07,0.23 -0.07,0.22 -0.08,0.21 -0.08,0.2 -0.09,0.19 -0.09,0.19 -0.1,0.17 -0.11,0.16 -0.11,0.16 -0.12,0.14 -0.12,0.13 -0.13,0.13 -0.13,0.11 -0.14,0.1 -0.15,0.1 -0.15,0.08 -0.15,0.07 -0.16,0.06 -0.16,0.05 -0.17,0.04 -0.17,0.03 -0.18,0.01 -0.18,0.01 c -1.64,0 -2.64,-1.25 -2.64,-2.64 0,-1.34 1,-2.64 2.64,-2.64 0.59,0 1.25,0.2 1.75,0.64 0.14,0.11 0.2,0.16 0.25,0.16 0.05,0 0.09,-0.05 0.09,-0.75 0,-3.69 -1.73,-6.68 -3.39,-8.32 -0.54,-0.54 -0.54,-0.65 -0.54,-0.79 0,-0.36 0.25,-0.55 0.5,-0.55 0.54,0 4.53,3.83 4.53,9.66 z"
           inkscape:connector-curvature="0"
           style="fill:#000000;stroke-width:0" /><path
           id="path3388"
           d="m 572.02,425.18 0,0.04 0.01,0.03 0.02,0.06 0.01,0.05 0.02,0.06 0.01,0.05 0.01,0.04 0.01,0.05 0.01,0.04 0.01,0.04 0.01,0.04 0.01,0.04 0.01,0.04 0,0.03 0.01,0.03 0,0.03 0.01,0.03 0,0.03 0.01,0.03 0,0.05 0.01,0.06 0,0.05 0,0.05 0,0.05 0,0.03 0,0.03 0,0.03 0,0.03 c 0,0.91 -0.68,1.35 -1.43,1.35 -0.5,0 -1.3,-0.3 -1.75,-1.05 -0.1,-0.25 -0.5,-1.78 -0.69,-2.69 -0.36,-1.29 -0.71,-2.64 -1,-3.98 l -2.25,-8.97 c -0.19,-0.75 -2.33,-4.23 -5.63,-4.23 -2.53,0 -3.09,2.18 -3.09,4.03 0,2.29 0.86,5.39 2.55,9.76 0.79,2.05 1,2.6 1,3.6 0,2.23 -1.6,4.07 -4.1,4.07 -4.73,0 -6.58,-7.21 -6.58,-7.67 0,-0.5 0.5,-0.5 0.61,-0.5 0.5,0 0.55,0.11 0.8,0.91 1.34,4.69 3.33,6.17 5.03,6.17 0.39,0 1.25,0 1.25,-1.59 0,-1.25 -0.5,-2.53 -0.86,-3.49 -1.98,-5.28 -2.89,-8.12 -2.89,-10.47 0,-4.42 3.14,-5.92 6.08,-5.92 1.95,0 3.64,0.85 5.03,2.24 -0.64,-2.58 -1.23,-5.03 -3.23,-7.68 -1.3,-1.68 -3.19,-3.14 -5.49,-3.14 -0.68,0 -2.94,0.16 -3.78,2.1 0.8,0 1.45,0 2.14,0.61 0.5,0.43 1,1.09 1,2.03 0,1.55 -1.34,1.75 -1.84,1.75 -1.14,0 -2.8,-0.8 -2.8,-3.24 0,-2.5 2.2,-4.34 5.28,-4.34 5.14,0 10.27,4.55 11.67,10.17 z"
           inkscape:connector-curvature="0"
           style="fill:#000000;stroke-width:0" /><path
           id="path3390"
           d="m 581.8,410.4 0.25,0 0.25,-0.02 0.24,-0.03 0.24,-0.04 0.23,-0.05 0.23,-0.06 0.22,-0.07 0.21,-0.08 0.21,-0.1 0.21,-0.1 0.19,-0.12 0.19,-0.12 0.18,-0.14 0.18,-0.15 0.16,-0.16 0.16,-0.17 0.15,-0.18 0.15,-0.19 0.13,-0.2 0.13,-0.22 0.11,-0.22 0.11,-0.24 0.1,-0.24 0.09,-0.26 0.08,-0.27 0.07,-0.28 0.06,-0.29 0.05,-0.3 0.04,-0.31 0.03,-0.32 0.01,-0.33 0.01,-0.35 c 0,-4.33 -2.52,-5.61 -4.53,-5.61 -1.39,0 -4.47,0.38 -5.92,2.44 1.62,0.06 2.01,1.22 2.01,1.95 0,1.11 -0.84,1.91 -1.92,1.91 -0.97,0 -1.95,-0.59 -1.95,-2.02 0,-3.28 3.62,-5.4 7.84,-5.4 4.84,0 8.19,3.25 8.19,6.73 0,2.72 -2.22,5.44 -6.07,6.24 3.66,1.33 4.99,3.93 4.99,6.06 0,2.75 -3.17,4.81 -7.03,4.81 -3.88,0 -6.83,-1.89 -6.83,-4.67 0,-1.19 0.77,-1.84 1.81,-1.84 1.08,0 1.77,0.79 1.77,1.76 0,1.02 -0.69,1.75 -1.77,1.81 1.22,1.55 3.61,1.93 4.91,1.93 1.56,0 3.76,-0.77 3.76,-3.8 0,-1.47 -0.48,-3.06 -1.39,-4.14 -1.15,-1.33 -2.12,-1.41 -3.87,-1.5 -0.88,-0.08 -0.94,-0.08 -1.11,-0.11 -0.08,0 -0.36,-0.06 -0.36,-0.45 0,-0.49 0.31,-0.49 0.91,-0.49 z"
           inkscape:connector-curvature="0"
           style="fill:#000000;stroke-width:0" /><path
           id="path3392"
           d="m 604.71,406.25 0,0.3 -0.01,0.3 -0.02,0.29 -0.03,0.28 -0.03,0.27 -0.04,0.26 -0.04,0.26 -0.05,0.24 -0.06,0.24 -0.06,0.23 -0.08,0.22 -0.07,0.21 -0.09,0.2 -0.08,0.19 -0.1,0.19 -0.1,0.17 -0.11,0.16 -0.11,0.16 -0.12,0.14 -0.12,0.13 -0.13,0.13 -0.13,0.11 -0.14,0.1 -0.14,0.1 -0.15,0.08 -0.16,0.07 -0.16,0.06 -0.16,0.05 -0.17,0.04 -0.17,0.03 -0.18,0.01 -0.18,0.01 c -1.64,0 -2.64,-1.25 -2.64,-2.64 0,-1.34 1,-2.64 2.64,-2.64 0.6,0 1.25,0.2 1.75,0.64 0.14,0.11 0.21,0.16 0.25,0.16 0.05,0 0.1,-0.05 0.1,-0.75 0,-3.69 -1.74,-6.68 -3.39,-8.32 -0.55,-0.54 -0.55,-0.65 -0.55,-0.79 0,-0.36 0.25,-0.55 0.5,-0.55 0.55,0 4.53,3.83 4.53,9.66 z"
           inkscape:connector-curvature="0"
           style="fill:#000000;stroke-width:0" /><path
           id="path3394"
           d="m 623.3,410.34 0.25,0.27 0.24,0.25 0.24,0.25 0.22,0.24 0.23,0.23 0.21,0.22 0.21,0.22 0.21,0.21 0.2,0.2 0.2,0.19 0.19,0.19 0.19,0.19 0.18,0.17 0.18,0.18 0.35,0.33 0.34,0.32 0.34,0.3 0.33,0.29 0.32,0.29 0.65,0.56 0.32,0.29 0.34,0.28 c 0,0.05 3.08,2.69 4.87,4.49 4.74,4.64 5.83,7.03 5.83,7.21 0,0.5 -0.45,0.5 -0.54,0.5 -0.35,0 -0.5,-0.09 -0.75,-0.54 -1.49,-2.39 -2.54,-3.19 -3.74,-3.19 -1.2,0 -1.8,0.75 -2.55,1.59 -0.93,1.16 -1.78,2.14 -3.43,2.14 -3.74,0 -6.02,-4.62 -6.02,-5.67 0,-0.25 0.14,-0.54 0.59,-0.54 0.46,0 0.55,0.25 0.65,0.54 0.95,2.3 3.84,2.35 4.23,2.35 1.05,0 2,-0.36 3.14,-0.75 2,-0.75 2.55,-0.75 3.84,-0.75 -1.79,-2.14 -5.98,-5.74 -6.92,-6.53 l -4.48,-4.18 c -3.39,-3.34 -5.14,-6.18 -5.14,-6.53 0,-0.5 0.5,-0.5 0.59,-0.5 0.41,0 0.5,0.1 0.8,0.64 1.15,1.75 2.64,3.1 4.23,3.1 1.16,0 1.66,-0.46 2.89,-1.89 0.86,-1.05 1.75,-1.85 3.19,-1.85 4.94,0 7.83,6.33 7.83,7.67 0,0.25 -0.2,0.5 -0.6,0.5 -0.45,0 -0.54,-0.29 -0.7,-0.65 -1.14,-3.24 -4.33,-4.17 -5.98,-4.17 -0.99,0 -1.89,0.29 -2.94,0.64 -1.69,0.64 -2.44,0.84 -3.48,0.84 -0.1,0 -0.9,0 -1.35,-0.14 z"
           inkscape:connector-curvature="0"
           style="fill:#000000;stroke-width:0" /><path
           id="path3396"
           d="m 649.35,410.4 0.26,0 0.25,-0.02 0.24,-0.03 0.24,-0.04 0.23,-0.05 0.23,-0.06 0.22,-0.07 0.21,-0.08 0.21,-0.1 0.2,-0.1 0.2,-0.12 0.19,-0.12 0.18,-0.14 0.17,-0.15 0.17,-0.16 0.16,-0.17 0.15,-0.18 0.14,-0.19 0.14,-0.2 0.13,-0.22 0.11,-0.22 0.11,-0.24 0.1,-0.24 0.09,-0.26 0.08,-0.27 0.07,-0.28 0.06,-0.29 0.05,-0.3 0.04,-0.31 0.02,-0.32 0.02,-0.33 0.01,-0.35 c 0,-4.33 -2.52,-5.61 -4.53,-5.61 -1.4,0 -4.47,0.38 -5.93,2.44 1.63,0.06 2.02,1.22 2.02,1.95 0,1.11 -0.84,1.91 -1.92,1.91 -0.97,0 -1.95,-0.59 -1.95,-2.02 0,-3.28 3.62,-5.4 7.84,-5.4 4.84,0 8.19,3.25 8.19,6.73 0,2.72 -2.22,5.44 -6.07,6.24 3.66,1.33 4.99,3.93 4.99,6.06 0,2.75 -3.17,4.81 -7.03,4.81 -3.88,0 -6.83,-1.89 -6.83,-4.67 0,-1.19 0.76,-1.84 1.81,-1.84 1.08,0 1.77,0.79 1.77,1.76 0,1.02 -0.69,1.75 -1.77,1.81 1.22,1.55 3.61,1.93 4.91,1.93 1.56,0 3.76,-0.77 3.76,-3.8 0,-1.47 -0.48,-3.06 -1.39,-4.14 -1.15,-1.33 -2.12,-1.41 -3.87,-1.5 -0.88,-0.08 -0.94,-0.08 -1.11,-0.11 -0.08,0 -0.36,-0.06 -0.36,-0.45 0,-0.49 0.31,-0.49 0.91,-0.49 z"
           inkscape:connector-curvature="0"
           style="fill:#000000;stroke-width:0" /><path
           id="path3398"
           d="m 676.67,418.65 0,0.37 0,0.39 -0.01,0.39 -0.02,0.41 -0.04,0.84 -0.06,0.88 -0.08,0.92 -0.11,0.95 -0.13,0.97 -0.16,1.01 -0.2,1.02 -0.23,1.03 -0.27,1.05 -0.3,1.06 -0.35,1.07 -0.39,1.07 -0.22,0.53 -0.22,0.53 -0.24,0.53 -0.25,0.53 c -2.98,6.12 -7.27,9.36 -7.77,9.36 -0.29,0 -0.5,-0.19 -0.5,-0.49 0,-0.15 0,-0.25 0.94,-1.15 4.89,-4.92 7.74,-12.85 7.74,-23.27 0,-8.51 -1.85,-17.28 -8.03,-23.56 -0.65,-0.59 -0.65,-0.7 -0.65,-0.84 0,-0.3 0.21,-0.5 0.5,-0.5 0.5,0 4.97,3.39 7.93,9.71 2.53,5.47 3.12,11 3.12,15.19 z"
           inkscape:connector-curvature="0"
           style="fill:#000000;stroke-width:0" /></g>    </g>
  </g>
</svg>
