<?xml version="1.0" encoding="UTF-8" standalone="no"?>
<!-- Created with Inkscape (http://www.inkscape.org/) -->

<svg
   xmlns:dc="http://purl.org/dc/elements/1.1/"
   xmlns:cc="http://creativecommons.org/ns#"
   xmlns:rdf="http://www.w3.org/1999/02/22-rdf-syntax-ns#"
   xmlns:svg="http://www.w3.org/2000/svg"
   xmlns="http://www.w3.org/2000/svg"
   xmlns:sodipodi="http://sodipodi.sourceforge.net/DTD/sodipodi-0.dtd"
   xmlns:inkscape="http://www.inkscape.org/namespaces/inkscape"
   width="1550.75"
   height="1014.7812"
   id="svg2"
   version="1.1"
   inkscape:version="0.48.4 r9939"
   sodipodi:docname="New document 1">
  <sodipodi:namedview
     id="base"
     pagecolor="#ffffff"
     bordercolor="#666666"
     borderopacity="1.0"
     inkscape:pageopacity="0.0"
     inkscape:pageshadow="2"
     inkscape:zoom="0.35"
     inkscape:cx="283.24107"
     inkscape:cy="564.54407"
     inkscape:document-units="px"
     inkscape:current-layer="layer1"
     showgrid="false"
     inkscape:window-width="1680"
     inkscape:window-height="988"
     inkscape:window-x="-4"
     inkscape:window-y="-4"
     inkscape:window-maximized="1"
     fit-margin-top="0"
     fit-margin-left="0"
     fit-margin-right="0"
     fit-margin-bottom="0" />
  <defs
     id="defs4">
    <marker
       inkscape:stockid="Arrow1Lend"
       orient="auto"
       refY="0"
       refX="0"
       id="Arrow1Lend"
       style="overflow:visible">
      <path
         id="path4037"
         d="M 0,0 5,-5 -12.5,0 5,5 0,0 z"
         style="fill-rule:evenodd;stroke:#000000;stroke-width:1pt"
         transform="matrix(-0.8,0,0,-0.8,-10,0)"
         inkscape:connector-curvature="0" />
    </marker>
  </defs>
  <metadata
     id="metadata7">
    <rdf:RDF>
      <cc:Work
         rdf:about="">
        <dc:format>image/svg+xml</dc:format>
        <dc:type
           rdf:resource="http://purl.org/dc/dcmitype/StillImage" />
        <dc:title></dc:title>
      </cc:Work>
    </rdf:RDF>
  </metadata>
  <g
     id="layer1"
     inkscape:groupmode="layer"
     inkscape:label="Layer 1"
     transform="translate(426.8125,-82.125)">
    <path
       inkscape:connector-curvature="0"
       id="path2985"
       d="M -425.71429,1095.2193 1122.8571,83.790754"
       style="fill:none;stroke:#000000;stroke-width:4;stroke-linecap:butt;stroke-linejoin:miter;stroke-miterlimit:4;stroke-opacity:1;stroke-dasharray:none"
       sodipodi:nodetypes="cc" />
    <path
       transform="matrix(0.12284157,0,0,0.12284157,68.415434,166.97397)"
       sodipodi:open="true"
       sodipodi:end="10.308757"
       sodipodi:start="4.0508916"
       d="m 116.91708,212.55089 c 41.71163,-32.4728 101.84999,-24.98324 134.32279,16.72839 32.47279,41.71163 24.98324,101.84999 -16.72839,134.32278 -41.71163,32.4728 -101.84999,24.98325 -134.32279,-16.72838 -31.892917,-40.96678 -25.311061,-99.89014 14.83514,-132.81"
       sodipodi:ry="95.714287"
       sodipodi:rx="95.714287"
       sodipodi:cy="288.07648"
       sodipodi:cx="175.71428"
       id="path3757"
       style="fill:#000000;fill-opacity:1;stroke:#000000;stroke-width:4;stroke-miterlimit:4;stroke-opacity:1;stroke-dasharray:none;stroke-dashoffset:0"
       sodipodi:type="arc" />
    <path
       transform="matrix(0.12284157,0,0,0.12284157,-130.15651,854.11727)"
       sodipodi:open="true"
       sodipodi:end="10.308757"
       sodipodi:start="4.0508916"
       d="m 116.91708,212.55089 c 41.71163,-32.4728 101.84999,-24.98324 134.32279,16.72839 32.47279,41.71163 24.98324,101.84999 -16.72839,134.32278 -41.71163,32.4728 -101.84999,24.98325 -134.32279,-16.72838 -31.892917,-40.96678 -25.311061,-99.89014 14.83514,-132.81"
       sodipodi:ry="95.714287"
       sodipodi:rx="95.714287"
       sodipodi:cy="288.07648"
       sodipodi:cx="175.71428"
       id="path3757-8"
       style="fill:#000000;fill-opacity:1;stroke:#000000;stroke-width:4;stroke-miterlimit:4;stroke-opacity:1;stroke-dasharray:none;stroke-dashoffset:0"
       sodipodi:type="arc" />
    <path
       sodipodi:nodetypes="cc"
       inkscape:connector-curvature="0"
       id="path3777"
       d="M 22.857143,89.505044 337.14286,598.07646"
       style="fill:none;stroke:#000000;stroke-width:3;stroke-linecap:butt;stroke-linejoin:miter;stroke-miterlimit:4;stroke-opacity:1;stroke-dasharray:18, 18;stroke-dashoffset:0" />
    <path
       transform="matrix(0.12284157,0,0,0.12284157,321.27206,562.6887)"
       sodipodi:open="true"
       sodipodi:end="10.308757"
       sodipodi:start="4.0508916"
       d="m 116.91708,212.55089 c 41.71163,-32.4728 101.84999,-24.98324 134.32279,16.72839 32.47279,41.71163 24.98324,101.84999 -16.72839,134.32278 -41.71163,32.4728 -101.84999,24.98325 -134.32279,-16.72838 -31.892917,-40.96678 -25.311061,-99.89014 14.83514,-132.81"
       sodipodi:ry="95.714287"
       sodipodi:rx="95.714287"
       sodipodi:cy="288.07648"
       sodipodi:cx="175.71428"
       id="path3757-3"
       style="fill:#000000;fill-opacity:1;stroke:#000000;stroke-width:4;stroke-miterlimit:4;stroke-opacity:1;stroke-dasharray:none;stroke-dashoffset:0"
       sodipodi:type="arc" />
    <g
       id="g3796"
       transform="translate(77.142857,268.57143)">
      <g
         word-spacing="normal"
         letter-spacing="normal"
         font-size-adjust="none"
         font-stretch="normal"
         font-weight="normal"
         font-variant="normal"
         font-style="normal"
         fill-rule="even-odd"
         stroke-miterlimit="10.433"
         xml:space="preserve"
         transform="matrix(1.0629921,0,0,-1.0629921,-186.02362,789.27165)"
         id="content"
         style="font-style:normal;font-variant:normal;font-weight:normal;font-stretch:normal;letter-spacing:normal;word-spacing:normal;text-anchor:start;fill:none;stroke:#000000;stroke-linecap:butt;stroke-linejoin:miter;stroke-miterlimit:10.43299961;stroke-opacity:1;stroke-dasharray:none;stroke-dashoffset:0"><path
           id="path3799"
           d="m 477.82,406.3 0.72,0.29 0.72,0.33 0.71,0.36 0.71,0.39 0.7,0.42 0.69,0.45 0.68,0.49 0.68,0.5 0.65,0.54 0.65,0.56 0.63,0.59 0.61,0.61 0.6,0.64 0.57,0.66 0.56,0.68 0.54,0.7 0.51,0.72 0.49,0.73 0.46,0.76 0.44,0.77 0.41,0.79 0.38,0.8 0.35,0.82 0.32,0.83 0.28,0.84 0.26,0.85 0.21,0.87 0.18,0.87 0.15,0.88 0.1,0.89 0.06,0.89 0.02,0.9 c 0,8.02 -5.28,13.4 -12.7,13.4 l -0.3,-1.25 c 4.98,0 8.62,-3.88 8.62,-10.56 0,-4.98 -2.54,-16.63 -10.91,-21.32 -0.25,1.74 -0.75,5.38 -4.39,5.38 v -1.09 c 2.1,0 3.04,-1.2 3.04,-4.24 0,-0.74 -0.04,-0.79 -0.54,-0.99 -1.3,-0.55 -2.79,-0.9 -4.19,-0.9 h 0 c -0.7,0 -2.29,0 -2.29,2.14 0,2 1.89,3.99 3.98,3.99 v 1.09 c -2.63,0 -5.07,-2.49 -5.07,-5.08 0,-0.99 0.29,-1.54 0.29,-1.59 h 0 c -3.88,1.54 -5.58,5.43 -5.58,9.91 0,3.44 1.3,10.51 5.09,15.89 3.63,5.08 8.31,7.37 11.95,7.37 l 0.3,1.25 c -10.76,0 -21.72,-11.31 -21.72,-22.92 0,-8.27 5.58,-13.3 12.75,-13.3 1.25,0 2.94,0.2 4.88,0.75 -0.19,-3.09 -0.19,-3.19 -0.19,-3.83 0,-1.6 0,-5.48 4.13,-5.48 5.93,0 8.32,9.11 8.32,9.66 0,0.35 -0.35,0.5 -0.55,0.5 -0.4,0 -0.5,-0.25 -0.6,-0.55 -1.19,-3.54 -4.08,-4.78 -5.82,-4.78 -2.3,0 -3.04,1.34 -3.54,5.13 z"
           inkscape:connector-curvature="0"
           style="fill:#000000;stroke-width:0" /></g>    </g>
    <g
       id="g3825"
       transform="translate(-425.71429,597.14286)">
      <g
         id="g3827"
         transform="matrix(1.0629921,0,0,-1.0629921,-186.02362,789.27165)"
         xml:space="preserve"
         stroke-miterlimit="10.433"
         fill-rule="even-odd"
         font-style="normal"
         font-variant="normal"
         font-weight="normal"
         font-stretch="normal"
         font-size-adjust="none"
         letter-spacing="normal"
         word-spacing="normal"
         style="font-style:normal;font-variant:normal;font-weight:normal;font-stretch:normal;letter-spacing:normal;word-spacing:normal;text-anchor:start;fill:none;stroke:#000000;stroke-linecap:butt;stroke-linejoin:miter;stroke-miterlimit:10.43299961;stroke-opacity:1;stroke-dasharray:none;stroke-dashoffset:0"><path
           d="m 471.09,421.74 0.2,1.3 3.39,13.55 c 0.45,1.74 0.55,1.89 2.69,1.89 h 4.78 c 4.14,0 6.78,-1.35 6.78,-4.78 0,-1.95 -1,-6.23 -2.94,-8.02 -2.49,-2.25 -5.48,-2.64 -7.67,-2.64 h -7.03 l -0.2,-1.3 h 8.47 c 7.08,0 14,5.18 14,10.76 0,3.84 -3.29,7.52 -9.81,7.52 h -16.14 c -0.95,0 -1.5,0 -1.5,-0.95 0,-0.59 0.45,-0.59 1.45,-0.59 0.64,0 1.54,-0.05 2.14,-0.1 0.8,-0.1 1.09,-0.25 1.09,-0.8 0,-0.2 -0.04,-0.35 -0.2,-0.94 l -6.67,-26.75 c -0.5,-1.95 -0.6,-2.35 -4.53,-2.35 -0.85,0 -1.4,0 -1.4,-0.94 0,-0.6 0.6,-0.6 0.75,-0.6 h 12.75 c 0.35,0 1,0 1,1 0,0.54 -0.45,0.54 -1.4,0.54 -1.84,0 -3.23,0 -3.23,0.9 0,0.3 0.1,0.55 0.14,0.85 z"
           id="path3829"
           inkscape:connector-curvature="0"
           style="fill:#000000;stroke-width:0" /></g>    </g>
    <g
       id="g3861"
       transform="translate(-185.71429,-171.42857)">
      <g
         word-spacing="normal"
         letter-spacing="normal"
         font-size-adjust="none"
         font-stretch="normal"
         font-weight="normal"
         font-variant="normal"
         font-style="normal"
         fill-rule="even-odd"
         stroke-miterlimit="10.433"
         xml:space="preserve"
         transform="matrix(1.0629921,0,0,-1.0629921,-186.02362,789.27165)"
         id="g3863"
         style="font-style:normal;font-variant:normal;font-weight:normal;font-stretch:normal;letter-spacing:normal;word-spacing:normal;text-anchor:start;fill:none;stroke:#000000;stroke-linecap:butt;stroke-linejoin:miter;stroke-miterlimit:10.43299961;stroke-opacity:1;stroke-dasharray:none;stroke-dashoffset:0"><path
           id="path3865"
           d="m 471.09,421.74 0.2,1.3 3.39,13.55 c 0.45,1.74 0.55,1.89 2.69,1.89 h 4.78 c 4.14,0 6.78,-1.35 6.78,-4.78 0,-1.95 -1,-6.23 -2.94,-8.02 -2.49,-2.25 -5.48,-2.64 -7.67,-2.64 h -7.03 l -0.2,-1.3 h 8.47 c 7.08,0 14,5.18 14,10.76 0,3.84 -3.29,7.52 -9.81,7.52 h -16.14 c -0.95,0 -1.5,0 -1.5,-0.95 0,-0.59 0.45,-0.59 1.45,-0.59 0.64,0 1.54,-0.05 2.14,-0.1 0.8,-0.1 1.09,-0.25 1.09,-0.8 0,-0.2 -0.04,-0.35 -0.2,-0.94 l -6.67,-26.75 c -0.5,-1.95 -0.6,-2.35 -4.53,-2.35 -0.85,0 -1.4,0 -1.4,-0.94 0,-0.6 0.6,-0.6 0.75,-0.6 h 12.75 c 0.35,0 1,0 1,1 0,0.54 -0.45,0.54 -1.4,0.54 -1.84,0 -3.23,0 -3.23,0.9 0,0.3 0.1,0.55 0.14,0.85 z"
           inkscape:connector-curvature="0"
           style="fill:#000000;stroke-width:0" /><path
           id="path3867"
           d="m 505.99,410.12 0,0.71 -0.02,0.68 -0.03,0.66 -0.04,0.64 -0.06,0.62 -0.08,0.59 -0.09,0.58 -0.11,0.56 -0.12,0.55 -0.15,0.53 -0.17,0.51 -0.19,0.5 -0.21,0.49 -0.24,0.48 -0.26,0.47 -0.14,0.24 -0.15,0.23 c -1.07,1.6 -3.24,2.99 -6.03,2.99 v -0.97 c 1.89,0 3.7,-1.15 4.33,-3.18 0.56,-1.88 0.59,-4.39 0.59,-7.42 0,-2.58 0,-5.17 -0.45,-7.36 -0.7,-3.17 -3.07,-3.94 -4.47,-3.94 h 0 c -1.6,0 -3.73,0.94 -4.43,3.8 -0.49,2.06 -0.49,4.92 -0.49,7.5 0,2.54 0,5.19 0.53,7.11 0.73,2.76 2.96,3.49 4.39,3.49 v 0.97 c -8.09,0 -8.09,-9.52 -8.09,-12.03 0,-2.51 0,-11.82 8.09,-11.82 8.09,0 8.09,9.31 8.09,11.82 z"
           inkscape:connector-curvature="0"
           style="fill:#000000;stroke-width:0" /></g>    </g>
    <g
       id="g3907"
       transform="translate(-231.42857,482.85714)">
      <g
         id="g3909"
         transform="matrix(1.0629921,0,0,-1.0629921,-186.02362,789.27165)"
         xml:space="preserve"
         stroke-miterlimit="10.433"
         fill-rule="even-odd"
         font-style="normal"
         font-variant="normal"
         font-weight="normal"
         font-stretch="normal"
         font-size-adjust="none"
         letter-spacing="normal"
         word-spacing="normal"
         style="font-style:normal;font-variant:normal;font-weight:normal;font-stretch:normal;letter-spacing:normal;word-spacing:normal;text-anchor:start;fill:none;stroke:#000000;stroke-linecap:butt;stroke-linejoin:miter;stroke-miterlimit:10.43299961;stroke-opacity:1;stroke-dasharray:none;stroke-dashoffset:0"><path
           d="m 487.75,448.64 -0.07,-0.06 -0.07,-0.07 -0.08,-0.07 -0.08,-0.07 -0.09,-0.08 -0.09,-0.08 -0.09,-0.09 -0.09,-0.09 -0.1,-0.09 -0.09,-0.09 -0.2,-0.19 -0.19,-0.19 -0.19,-0.21 -0.09,-0.1 -0.09,-0.1 -0.09,-0.1 -0.08,-0.11 -0.08,-0.1 -0.08,-0.1 -0.07,-0.1 -0.06,-0.1 -0.06,-0.1 -0.05,-0.1 -0.05,-0.1 -0.04,-0.09 -0.03,-0.1 -0.02,-0.09 -0.02,-0.09 0,-0.08 c 0,-0.5 0.5,-1 1,-1 0.44,0 0.69,0.35 0.94,0.65 0.6,0.75 1.74,2.14 3.94,3.24 0.35,0.2 0.84,0.45 0.84,1.05 0,0.49 -0.34,0.74 -0.69,0.99 -1.1,0.75 -1.65,1.64 -2.05,2.84 -0.1,0.45 -0.3,1.1 -0.99,1.1 -0.7,0 -1,-0.65 -1,-1.05 0,-0.25 0.4,-1.84 1.2,-2.89 h -16.79 c -0.85,0 -1.74,0 -1.74,-0.99 0,-1 0.89,-1 1.74,-1 z"
           id="path3911"
           inkscape:connector-curvature="0"
           style="fill:#000000;stroke-width:0" /><path
           d="m 481.7,440.02 0,0.01 0,0 0,0.01 0,0.01 0,0.01 0,0.01 0,0.02 0,0.02 -0.01,0.02 0,0.02 -0.01,0.02 0,0.02 -0.01,0.03 -0.01,0.02 -0.01,0.03 -0.01,0.02 -0.02,0.02 -0.01,0.03 -0.02,0.02 -0.02,0.03 -0.03,0.02 -0.01,0.01 -0.01,0.01 -0.01,0.01 -0.02,0.01 -0.01,0.01 -0.02,0.01 -0.01,0.01 -0.02,0.01 -0.02,0.01 -0.02,0.01 -0.01,0.01 -0.02,0 -0.03,0.01 -0.02,0.01 -0.02,0 -0.02,0.01 -0.02,0 -0.03,0.01 -0.02,0 -0.03,0 -0.03,0.01 -0.03,0 -0.03,0 -0.03,0 c -0.74,0 -5.47,-0.45 -6.32,-0.55 -0.4,-0.05 -0.7,-0.3 -0.7,-0.95 0,-0.59 0.45,-0.59 1.2,-0.59 2.39,0 2.49,-0.35 2.49,-0.85 l -0.15,-0.99 -2.99,-11.81 c -0.9,1.84 -2.34,3.19 -4.58,3.19 l 0.05,-1.1 c 3.24,0 3.93,-4.08 3.93,-4.38 0,-0.3 -0.1,-0.6 -0.15,-0.85 l -2.49,-9.76 c -0.25,-0.9 -0.25,-1 -0.99,-1.84 -2.19,-2.75 -4.24,-3.54 -5.63,-3.54 -2.49,0 -3.19,2.74 -3.19,4.68 0,2.49 1.59,8.62 2.74,10.91 1.54,2.94 3.78,4.78 5.78,4.78 l -0.05,1.1 c -5.83,0 -12.01,-7.32 -12.01,-14.6 0,-4.68 2.74,-7.97 6.63,-7.97 0.99,0 3.49,0.2 6.47,3.74 0.4,-2.09 2.14,-3.74 4.53,-3.74 1.75,0 2.9,1.15 3.69,2.74 0.85,1.79 1.5,4.83 1.5,4.93 0,0.5 -0.45,0.5 -0.6,0.5 -0.5,0 -0.55,-0.2 -0.7,-0.89 -0.85,-3.24 -1.74,-6.18 -3.78,-6.18 -1.35,0 -1.5,1.29 -1.5,2.29 0,1.2 0.1,1.54 0.3,2.39 z"
           id="path3913"
           inkscape:connector-curvature="0"
           style="fill:#000000;stroke-width:0" /></g>    </g>
    <g
       id="g3961"
       transform="translate(-82.857143,365.71428)">
      <g
         word-spacing="normal"
         letter-spacing="normal"
         font-size-adjust="none"
         font-stretch="normal"
         font-weight="normal"
         font-variant="normal"
         font-style="normal"
         fill-rule="even-odd"
         stroke-miterlimit="10.433"
         xml:space="preserve"
         transform="matrix(1.0629921,0,0,-1.0629921,-186.02362,789.27165)"
         id="g3963"
         style="font-style:normal;font-variant:normal;font-weight:normal;font-stretch:normal;letter-spacing:normal;word-spacing:normal;text-anchor:start;fill:none;stroke:#000000;stroke-linecap:butt;stroke-linejoin:miter;stroke-miterlimit:10.43299961;stroke-opacity:1;stroke-dasharray:none;stroke-dashoffset:0"><path
           id="path3965"
           d="m 464.57,422.73 v 3.29 l -7.18,-0.55 v -1.54 c 3.54,0 3.89,-0.31 3.89,-2.5 v -23.31 c 0,-2.24 -0.55,-2.24 -3.89,-2.24 v -1.54 h 11.21 v 1.54 c -3.33,0 -3.88,0 -3.88,2.24 v 8.37 0.45 l 0.69,0.65 c -0.69,1.04 -0.69,1.09 -0.69,2.09 h 0 v 11.11 c 1.44,2.54 3.88,3.98 6.42,3.98 3.64,0 6.68,-4.38 6.68,-10.01 0,-6.03 -3.49,-10.21 -7.18,-10.21 -1.99,0 -3.88,0.99 -5.23,3.04 l -0.69,-0.65 c 0.24,-0.8 2.34,-3.49 6.12,-3.49 5.93,0 11.11,4.88 11.11,11.31 0,6.33 -4.83,11.26 -10.41,11.26 -3.88,0 -5.98,-2.2 -6.97,-3.29 z"
           inkscape:connector-curvature="0"
           style="fill:#000000;stroke-width:0" /><path
           id="path3967"
           d="m 491.32,420.54 v 5.48 l -6.93,-0.55 v -1.54 c 3.49,0 3.89,-0.35 3.89,-2.79 v -13.35 c 0,-2.25 -0.55,-2.25 -3.89,-2.25 V 404 h 12.01 v 1.54 h -1.04 c -3.69,0 -3.79,0.55 -3.79,2.35 v 7.66 c 0,4.94 2.09,9.37 5.88,9.37 0.34,0 0.44,0 0.54,-0.05 -0.15,-0.05 -1.14,-0.65 -1.14,-1.94 0,-1.39 1.04,-2.14 2.14,-2.14 0.9,0 2.14,0.59 2.14,2.19 0,1.59 -1.54,3.04 -3.68,3.04 -3.64,0 -5.43,-3.34 -6.13,-5.48 z"
           inkscape:connector-curvature="0"
           style="fill:#000000;stroke-width:0" /><path
           id="path3969"
           d="m 526.46,414.66 -0.01,0.59 -0.05,0.59 -0.07,0.58 -0.09,0.57 -0.13,0.56 -0.15,0.55 -0.17,0.54 -0.2,0.53 -0.22,0.52 -0.25,0.5 -0.26,0.49 -0.29,0.47 -0.31,0.46 -0.33,0.44 -0.35,0.42 -0.36,0.41 -0.39,0.39 -0.4,0.36 -0.41,0.35 -0.44,0.33 -0.44,0.3 -0.46,0.29 -0.48,0.26 -0.48,0.23 -0.5,0.21 -0.51,0.19 -0.52,0.16 -0.53,0.13 -0.54,0.1 -0.55,0.08 -0.56,0.04 -0.56,0.02 -0.05,-1.1 c 2.19,0 4.34,-1.1 5.63,-3.24 1.3,-2.14 1.3,-5.03 1.3,-6.92 0,-1.79 0,-4.49 -1.1,-6.68 -1.09,-2.24 -3.28,-3.68 -5.78,-3.68 h 0 c -2.14,0 -4.33,1.04 -5.68,3.34 -1.24,2.19 -1.24,5.23 -1.24,7.02 0,1.94 0,4.63 1.2,6.82 1.34,2.3 3.68,3.34 5.67,3.34 l 0.05,1.1 c -6.22,0 -11.06,-5.43 -11.06,-11.66 0,-6.43 5.18,-11.21 11.01,-11.21 6.03,0 11.06,4.88 11.06,11.21 z"
           inkscape:connector-curvature="0"
           style="fill:#000000;stroke-width:0" /><path
           id="path3971"
           d="m 541.46,426.02 -7.57,-0.55 v -1.54 c 3.84,0 4.28,-0.35 4.28,-2.79 v -19.73 c 0,-2.24 -0.44,-6.53 -3.64,-6.53 -0.24,0 -1.39,0 -2.68,0.65 0.74,0.2 1.74,0.9 1.74,2.24 0,1.3 -0.89,2.3 -2.29,2.3 -1.4,0 -2.29,-1 -2.29,-2.3 0,-2.59 2.79,-3.98 5.63,-3.98 3.73,0 6.82,3.19 6.82,7.72 z"
           inkscape:connector-curvature="0"
           style="fill:#000000;stroke-width:0" /><path
           id="path3973"
           d="m 541.46,434.68 0,0.14 -0.01,0.13 -0.02,0.13 -0.02,0.13 -0.03,0.13 -0.04,0.12 -0.04,0.13 -0.05,0.12 -0.05,0.11 -0.06,0.12 -0.06,0.11 -0.07,0.1 -0.08,0.11 -0.08,0.1 -0.08,0.09 -0.09,0.1 -0.09,0.08 -0.1,0.09 -0.1,0.08 -0.1,0.07 -0.11,0.07 -0.11,0.06 -0.11,0.06 -0.12,0.05 -0.12,0.05 -0.12,0.04 -0.12,0.04 -0.13,0.03 -0.13,0.02 -0.13,0.02 -0.14,0.01 -0.13,0 c -1.44,0 -2.64,-1.19 -2.64,-2.64 0,-1.44 1.2,-2.64 2.64,-2.64 1.45,0 2.64,1.2 2.64,2.64 z"
           inkscape:connector-curvature="0"
           style="fill:#000000;stroke-width:0" /><path
           id="path3975"
           d="m 570.19,416.61 -0.02,-0.01 -0.01,-0.02 -0.03,-0.03 -0.04,-0.03 -0.05,-0.04 -0.04,-0.04 -0.05,-0.05 -0.06,-0.05 -0.05,-0.05 -0.06,-0.06 -0.06,-0.05 -0.06,-0.07 -0.07,-0.06 -0.06,-0.06 -0.07,-0.07 -0.12,-0.14 -0.13,-0.14 -0.06,-0.07 -0.06,-0.07 -0.05,-0.07 -0.06,-0.07 -0.05,-0.07 -0.04,-0.07 -0.05,-0.07 -0.03,-0.06 -0.04,-0.07 -0.03,-0.06 -0.02,-0.06 -0.02,-0.06 0,-0.03 -0.01,-0.03 0,-0.03 0,-0.02 c 0,-0.49 0.42,-0.88 0.87,-0.88 0.39,0 0.6,0.25 0.8,0.53 0.87,1.01 1.96,1.74 2.86,2.16 0.49,0.21 0.87,0.38 0.87,0.94 0,0.45 -0.34,0.66 -0.66,0.84 -1.15,0.69 -1.46,1.57 -1.64,2.02 -0.07,0.21 -0.27,0.73 -0.87,0.73 -0.24,0 -0.83,-0.21 -0.83,-0.87 0,-0.49 0.52,-1.47 0.83,-1.88 H 558.4 c -0.56,0 -1.39,0 -1.39,-0.84 0,-0.87 0.8,-0.87 1.39,-0.87 z"
           inkscape:connector-curvature="0"
           style="fill:#000000;stroke-width:0" /><path
           id="path3977"
           d="m 565.91,410.15 0,0.01 0,0 0.01,0 0,0.01 0,0.01 0,0 0,0.01 0.01,0 0,0.02 0.01,0.02 0,0.02 0.01,0.01 0,0.02 0.01,0.03 0,0.02 0.01,0.02 0.01,0.02 0,0.03 0.01,0.04 0.01,0.05 0.01,0.03 0.01,0.02 0,0.02 0.01,0.02 0,0.02 0,0.02 0.01,0.02 0,0.01 0,0.01 0,0.01 0.01,0 0,0.01 0,0.01 0,0 0,0.01 0,0 0,0 0,0.01 0,0 0,0 c 0,0.18 -0.14,0.49 -0.56,0.49 -0.7,0 -3.59,-0.28 -4.46,-0.35 -0.28,-0.03 -0.77,-0.07 -0.77,-0.8 0,-0.49 0.49,-0.49 0.91,-0.49 1.67,0 1.67,-0.24 1.67,-0.52 0,-0.25 -0.07,-0.46 -0.14,-0.77 l -1.98,-7.95 c -0.74,1.15 -1.92,2.06 -3.6,2.06 v -0.98 c 2.44,0 3.11,-2.65 3.11,-3.03 0,-0.14 -0.07,-0.39 -0.11,-0.49 l -1.64,-6.52 c -0.24,-0.98 -1.01,-1.68 -1.78,-2.34 -0.31,-0.28 -1.7,-1.39 -3.2,-1.39 -1.29,0 -2.55,0.91 -2.55,3.38 0,1.85 1.01,5.69 1.82,7.08 1.6,2.79 3.38,3.31 4.35,3.31 v 0.98 c -4.46,0 -8.99,-4.92 -8.99,-9.94 0,-3.38 2.27,-5.79 5.26,-5.79 1.88,0 3.56,1.08 4.95,2.44 0.67,-2.09 2.69,-2.44 3.59,-2.44 1.26,0 2.13,0.77 2.76,1.85 0.77,1.36 1.22,3.35 1.22,3.48 0,0.46 -0.45,0.46 -0.56,0.46 -0.49,0 -0.52,-0.14 -0.76,-1.08 -0.42,-1.68 -1.09,-3.73 -2.55,-3.73 -0.91,0 -1.15,0.76 -1.15,1.71 0,0.66 0.07,0.97 0.17,1.43 z"
           inkscape:connector-curvature="0"
           style="fill:#000000;stroke-width:0" /><path
           id="path3979"
           d="m 609.83,449.46 0.16,0 0.16,0 0.15,0 0.08,0.01 0.08,0 0.07,0.01 0.08,0.01 0.07,0.01 0.07,0.01 0.07,0.01 0.07,0.02 0.06,0.02 0.07,0.02 0.06,0.03 0.05,0.02 0.06,0.04 0.05,0.03 0.05,0.04 0.05,0.04 0.04,0.05 0.04,0.05 0.01,0.02 0.02,0.03 0.02,0.03 0.01,0.03 0.02,0.03 0.01,0.04 0.01,0.03 0.01,0.03 0.01,0.04 0.01,0.04 0,0.04 0.01,0.04 0,0.04 0.01,0.04 0,0.05 0,0.04 c 0,1 -0.9,1 -1.74,1 h -26.95 c -0.85,0 -1.75,0 -1.75,-1 0,-0.99 0.9,-0.99 1.75,-0.99 z"
           inkscape:connector-curvature="0"
           style="fill:#000000;stroke-width:0" /><path
           id="path3981"
           d="m 631.83,449.46 0.16,0 0.16,0 0.15,0 0.08,0.01 0.08,0 0.07,0.01 0.08,0.01 0.07,0.01 0.07,0.01 0.07,0.01 0.07,0.02 0.06,0.02 0.07,0.02 0.06,0.03 0.05,0.02 0.06,0.04 0.05,0.03 0.05,0.04 0.05,0.04 0.04,0.05 0.04,0.05 0.01,0.02 0.02,0.03 0.02,0.03 0.01,0.03 0.02,0.03 0.01,0.04 0.01,0.03 0.01,0.03 0.01,0.04 0.01,0.04 0,0.04 0.01,0.04 0,0.04 0.01,0.04 0,0.05 0,0.04 c 0,1 -0.9,1 -1.74,1 h -26.95 c -0.85,0 -1.75,0 -1.75,-1 0,-0.99 0.9,-0.99 1.75,-0.99 z"
           inkscape:connector-curvature="0"
           style="fill:#000000;stroke-width:0" /><path
           id="path3983"
           d="m 662.54,449.46 -0.25,-0.2 -0.24,-0.19 -0.24,-0.2 -0.23,-0.19 -0.22,-0.2 -0.21,-0.19 -0.21,-0.19 -0.2,-0.18 -0.19,-0.19 -0.18,-0.18 -0.17,-0.18 -0.17,-0.18 -0.16,-0.17 -0.16,-0.17 -0.14,-0.16 -0.14,-0.17 -0.14,-0.15 -0.12,-0.16 -0.12,-0.15 -0.12,-0.14 -0.1,-0.14 -0.1,-0.13 -0.1,-0.13 -0.08,-0.12 -0.09,-0.11 -0.07,-0.11 -0.07,-0.1 -0.06,-0.1 -0.06,-0.09 -0.05,-0.08 -0.05,-0.07 -0.04,-0.06 c -2.24,-3.44 -2.64,-6.58 -2.64,-6.63 0,-0.6 0.6,-0.6 1,-0.6 0.85,0 0.89,0.1 1.09,1 1.15,4.88 4.09,9.07 9.72,11.35 0.59,0.2 0.74,0.31 0.74,0.65 0,0.35 -0.29,0.5 -0.4,0.55 -2.19,0.85 -8.22,3.34 -10.1,11.71 -0.16,0.59 -0.2,0.74 -1.05,0.74 -0.4,0 -1,0 -1,-0.59 0,-0.1 0.45,-3.24 2.54,-6.58 1,-1.49 2.44,-3.24 4.58,-4.83 h -37.01 c -0.89,0 -1.79,0 -1.79,-1 0,-0.99 0.9,-0.99 1.79,-0.99 z"
           inkscape:connector-curvature="0"
           style="fill:#000000;stroke-width:0" /><path
           id="path3985"
           d="m 592.09,419.74 0.2,1.3 3.39,13.55 c 0.45,1.74 0.55,1.89 2.69,1.89 h 4.78 c 4.13,0 6.78,-1.35 6.78,-4.78 0,-1.95 -1,-6.23 -2.94,-8.02 -2.49,-2.25 -5.48,-2.64 -7.67,-2.64 h -7.03 l -0.2,-1.3 h 8.47 c 7.08,0 14,5.18 14,10.76 0,3.84 -3.29,7.52 -9.81,7.52 H 588.6 c -0.94,0 -1.49,0 -1.49,-0.95 0,-0.59 0.45,-0.59 1.45,-0.59 0.64,0 1.54,-0.05 2.14,-0.1 0.8,-0.1 1.09,-0.25 1.09,-0.8 0,-0.2 -0.04,-0.35 -0.2,-0.94 l -6.67,-26.75 c -0.5,-1.95 -0.6,-2.35 -4.53,-2.35 -0.85,0 -1.4,0 -1.4,-0.94 0,-0.6 0.6,-0.6 0.75,-0.6 h 12.75 c 0.35,0 1,0 1,1 0,0.54 -0.45,0.54 -1.4,0.54 -1.84,0 -3.24,0 -3.24,0.9 0,0.3 0.11,0.55 0.15,0.85 z"
           inkscape:connector-curvature="0"
           style="fill:#000000;stroke-width:0" /><path
           id="path3987"
           d="m 631.09,419.74 0.2,1.3 3.39,13.55 c 0.45,1.74 0.55,1.89 2.69,1.89 h 4.78 c 4.13,0 6.78,-1.35 6.78,-4.78 0,-1.95 -1,-6.23 -2.94,-8.02 -2.49,-2.25 -5.48,-2.64 -7.67,-2.64 h -7.03 l -0.2,-1.3 h 8.47 c 7.08,0 14,5.18 14,10.76 0,3.84 -3.29,7.52 -9.81,7.52 H 627.6 c -0.94,0 -1.49,0 -1.49,-0.95 0,-0.59 0.45,-0.59 1.45,-0.59 0.64,0 1.54,-0.05 2.14,-0.1 0.8,-0.1 1.09,-0.25 1.09,-0.8 0,-0.2 -0.04,-0.35 -0.2,-0.94 l -6.67,-26.75 c -0.5,-1.95 -0.6,-2.35 -4.53,-2.35 -0.85,0 -1.4,0 -1.4,-0.94 0,-0.6 0.6,-0.6 0.75,-0.6 h 12.75 c 0.35,0 1,0 1,1 0,0.54 -0.45,0.54 -1.4,0.54 -1.84,0 -3.24,0 -3.24,0.9 0,0.3 0.11,0.55 0.15,0.85 z"
           inkscape:connector-curvature="0"
           style="fill:#000000;stroke-width:0" /><path
           id="path3989"
           d="m 665.99,407.12 0,0.71 -0.02,0.68 -0.03,0.66 -0.04,0.64 -0.06,0.62 -0.08,0.59 -0.09,0.58 -0.11,0.56 -0.12,0.55 -0.15,0.53 -0.17,0.51 -0.19,0.5 -0.21,0.49 -0.24,0.48 -0.26,0.47 -0.14,0.24 -0.15,0.23 c -1.08,1.6 -3.24,2.99 -6.03,2.99 v -0.97 c 1.88,0 3.7,-1.15 4.33,-3.18 0.55,-1.88 0.59,-4.39 0.59,-7.42 0,-2.58 0,-5.17 -0.45,-7.36 -0.7,-3.17 -3.07,-3.94 -4.47,-3.94 h 0 c -1.6,0 -3.73,0.94 -4.43,3.8 -0.49,2.06 -0.49,4.92 -0.49,7.5 0,2.54 0,5.19 0.53,7.11 0.73,2.76 2.96,3.49 4.39,3.49 v 0.97 c -8.09,0 -8.09,-9.52 -8.09,-12.03 0,-2.51 0,-11.82 8.09,-11.82 8.09,0 8.09,9.31 8.09,11.82 z"
           inkscape:connector-curvature="0"
           style="fill:#000000;stroke-width:0" /></g>    </g>
    <path
       style="fill:none;stroke:#d90000;stroke-width:6;stroke-linecap:butt;stroke-linejoin:miter;stroke-miterlimit:4;stroke-opacity:1;stroke-dasharray:none;marker-end:none"
       d="m -108.57143,880.93361 240,-157.14285 -54.285712,2.85714"
       id="path4028"
       inkscape:connector-curvature="0"
       sodipodi:nodetypes="ccc" />
    <path
       style="fill:none;stroke:#0c00f5;stroke-width:6;stroke-linecap:butt;stroke-linejoin:miter;stroke-miterlimit:4;stroke-opacity:1;stroke-dasharray:none"
       d="m 342.85715,603.79075 0,48.57142"
       id="path5020"
       inkscape:connector-curvature="0"
       sodipodi:nodetypes="cc" />
    <path
       style="fill:none;stroke:#f30000;stroke-width:6;stroke-linecap:butt;stroke-linejoin:miter;stroke-miterlimit:4;stroke-opacity:1;stroke-dasharray:none"
       d="M -102.85714,889.50504 88.571429,203.79075 42.857143,226.6479"
       id="path5022"
       inkscape:connector-curvature="0" />
    <path
       style="fill:none;stroke:#f80000;stroke-width:6;stroke-linecap:butt;stroke-linejoin:miter;stroke-miterlimit:4;stroke-opacity:1;stroke-dasharray:none"
       d="m 94.285714,206.6479 11.428576,40"
       id="path5024"
       inkscape:connector-curvature="0" />
    <path
       style="fill:none;stroke:#0c00f5;stroke-width:6;stroke-linecap:butt;stroke-linejoin:miter;stroke-miterlimit:4;stroke-opacity:1;stroke-dasharray:none;marker-end:none"
       d="M -105.71429,885.21932 342.85714,596.6479 280,593.79075"
       id="path4028-6"
       inkscape:connector-curvature="0"
       sodipodi:nodetypes="ccc" />
    <path
       style="fill:none;stroke:#f90000;stroke-width:6;stroke-linecap:butt;stroke-linejoin:miter;stroke-miterlimit:4;stroke-opacity:1;stroke-dasharray:none"
       d="m 131.42857,723.79075 2.85714,51.42858"
       id="path5044"
       inkscape:connector-curvature="0"
       sodipodi:nodetypes="cc" />
  </g>
</svg>
